<svg id="Layer_1" data-name="Layer 1" xmlns="http://www.w3.org/2000/svg" viewBox="0 0 1000 362.87"><defs><style>.cls-1{fill:#f0e3e4;}.cls-2{fill:#e1cdcd;}.cls-3{fill:#e2dede;}.cls-4{fill:#e0eee3;}.cls-5{fill:#f9eff4;}.cls-6{font-size:12px;fill:#414042;}.cls-6,.cls-8,.cls-9{font-family:Helvetica-Bold, Helvetica;font-weight:700;}.cls-7{letter-spacing:-0.05em;}.cls-8,.cls-9{font-size:40px;}.cls-8{fill:#cd625a;}.cls-9{fill:#97857a;}</style></defs><title>flavor-wheel</title><path class="cls-1" d="M707,4A176.21,176.21,0,1,0,883.23,180.21,176.21,176.21,0,0,0,707,4Zm0,270.94a94.73,94.73,0,1,1,94.73-94.73A94.73,94.73,0,0,1,707,274.94Z"/><path class="cls-2" d="M879.88,145.9,800,161.76a95.87,95.87,0,0,1,1.8,18.45,94.63,94.63,0,0,1-39.87,77.24l47.19,66.43a176.43,176.43,0,0,0,70.81-178Z"/><path class="cls-3" d="M809,323.92l-47.09-66.5a94.79,94.79,0,0,1-103.54,4.09l-42,69.85A176.31,176.31,0,0,0,809,323.92Z"/><path class="cls-4" d="M612.29,180.21a94.67,94.67,0,0,1,3-23.78L536.4,136a176.53,176.53,0,0,0,80,195.35l41.92-69.88A94.66,94.66,0,0,1,612.29,180.21Z"/><path class="cls-5" d="M800.08,162.48l80-15.24A176.25,176.25,0,0,0,707,4V85.48A94.75,94.75,0,0,1,800.08,162.48Z"/><text class="cls-6" transform="matrix(0.75, 0.66, -0.66, 0.75, 768.84, 95.45)">Floral</text><text class="cls-6" transform="matrix(0.41, -0.91, 0.91, 0.41, 802.75, 240.86)">Spicy</text><text class="cls-6" transform="translate(695.55 297.22)">Smoky</text><text class="cls-6" transform="matrix(0.37, 0.93, -0.93, 0.37, 594.54, 203.41)">Herbal</text><text class="cls-6" transform="translate(619.41 115.94) rotate(-40.47)"><tspan class="cls-7">T</tspan><tspan x="6.67" y="0">ropical</tspan></text><text class="cls-8" transform="translate(107.46 194.12)">Fruity</text><text class="cls-9" transform="translate(349.97 194.12)">+</text></svg>