<?xml version="1.0" encoding="utf-8"?>
<!-- Generator: Adobe Illustrator 24.0.1, SVG Export Plug-In . SVG Version: 6.00 Build 0)  -->
<svg version="1.1" id="Layer_1" xmlns="http://www.w3.org/2000/svg" xmlns:xlink="http://www.w3.org/1999/xlink" x="0px" y="0px"
	 viewBox="0 0 1000 362.9" style="enable-background:new 0 0 1000 362.9;" xml:space="preserve">
<style type="text/css">
	.st0{fill:#F0E3E4;}
	.st1{fill:#E1CDCD;}
	.st2{fill:#E2DEDE;}
	.st3{fill:#E0EEE3;}
	.st4{fill:#F9EFF4;}
	.st5{fill:#414042;}
	.st6{font-family:'Helvetica-Bold';}
	.st7{font-size:11.9886px;}
	.st8{font-size:11.9772px;}
	.st9{font-size:12px;}
	.st10{font-size:12.0108px;}
	.st11{fill:#CD625A;}
	.st12{font-size:40px;}
	.st13{fill:#97857A;}
</style>
<title>flavor-wheel</title>
<path class="st0" d="M707,4c-97.3,0-176.2,78.9-176.2,176.2c0,97.3,78.9,176.2,176.2,176.2c97.3,0,176.2-78.9,176.2-176.2
	C883.2,82.9,804.3,4,707,4C707,4,707,4,707,4z M707,274.9c-52.3,0-94.7-42.4-94.7-94.7s42.4-94.7,94.7-94.7s94.7,42.4,94.7,94.7v0
	C801.7,232.5,759.3,274.9,707,274.9z"/>
<path class="st1" d="M879.9,145.9L800,161.8c1.2,6.1,1.8,12.3,1.8,18.4c0,30.7-14.8,59.5-39.9,77.2l47.2,66.4
	C865.7,283.6,893.4,214,879.9,145.9L879.9,145.9z"/>
<path class="st2" d="M809,323.9l-47.1-66.5c-30.6,21.8-71.3,23.4-103.5,4.1l-42,69.9C676.4,367.3,752,364.4,809,323.9z"/>
<path class="st3" d="M612.3,180.2c0-8,1-16,3-23.8L536.4,136c-19.5,75.6,13,155.1,80,195.4l41.9-69.9
	C629.8,244.4,612.3,213.5,612.3,180.2z"/>
<path class="st4" d="M800.1,162.5l80-15.2C864.2,64.1,791.6,4,707,4v81.5C752.5,85.5,791.6,117.8,800.1,162.5z"/>
<text transform="matrix(0.7507 0.6606 -0.6606 0.7507 768.8397 95.4502)" class="st5 st6 st7">Floral</text>
<text transform="matrix(0.4108 -0.9117 0.9117 0.4108 802.7494 240.859)" class="st5 st6 st8">Spicy</text>
<text transform="matrix(1 0 0 1 695.55 297.22)" class="st5 st6 st9">Smoky</text>
<text transform="matrix(0.3697 0.9292 -0.9292 0.3697 594.5391 203.4099)" class="st5 st6 st10">Herbal</text>
<text transform="matrix(0.7607 -0.649 0.649 0.7607 619.41 115.9398)" class="st5 st6 st9">T</text>
<text transform="matrix(0.7607 -0.649 0.649 0.7607 624.4843 111.6107)" class="st5 st6 st9">ropical</text>
<text transform="matrix(1 0 0 1 107.46 194.12)" class="st11 st6 st12">Fruity</text>
<text transform="matrix(1 0 0 1 349.97 194.12)" class="st13 st6 st12">+</text>
</svg>
