<svg id="Layer_1" data-name="Layer 1" xmlns="http://www.w3.org/2000/svg" viewBox="0 0 1000 301.68"><defs><style>.cls-1{fill:none;stroke:#000;stroke-miterlimit:10;stroke-width:2.55px;}.cls-2,.cls-3{isolation:isolate;}.cls-3{font-size:18px;font-family:HelveticaNeue-Bold, Helvetica Neue;font-weight:700;}.cls-4{letter-spacing:-0.02em;}</style></defs><title>glasses</title><path d="M929.61,65.36a1.11,1.11,0,0,1,1,.69c3.47,8.17,35.09,86.84-25.29,107.62,0,0-4,.32-4.13,21-.13,18.41-.2,31.82-.22,34.55a1.15,1.15,0,0,0,.4.87c1.91,1.61,10.84,8.45,31.69,15.31a1.12,1.12,0,0,1-.34,2.19H867a1.12,1.12,0,0,1-.34-2.19c20.88-6.86,30-13.71,32-15.31a1.15,1.15,0,0,0,.41-.88c0-2.75-.09-16.15-.22-34.54-.15-20.68-4.13-21-4.13-21-60.38-20.78-28.76-99.45-25.29-107.62a1.11,1.11,0,0,1,1-.69h0l29.61,0,29.61,0h0m0-2.55h0l-29.61,0-29.61,0A3.67,3.67,0,0,0,867,65.05a161.83,161.83,0,0,0-9.33,31.19c-3.86,20.32-2.75,37.5,3.29,51.08s17,23.28,32.66,28.7c.48.62,2.5,4.11,2.6,18.67.12,17.15.19,30,.22,33.84-2.56,2-11.61,8.2-30.64,14.45a3.67,3.67,0,0,0,1.14,7.16h65.8a3.67,3.67,0,0,0,1.14-7.16c-19-6.25-27.85-12.47-30.34-14.43,0-3.85.1-16.68.22-33.86.1-14.56,2.12-18.05,2.6-18.67C922,170.6,933,161,939,147.32s7.15-30.76,3.29-51.08A161.83,161.83,0,0,0,933,65.05a3.67,3.67,0,0,0-3.38-2.24Z"/><path d="M260.49,79.35h0l35.19.09a10,10,0,0,0-.52,4.25c.3,2.07,40.26,74.86-27.22,89.65,0,0-6,1.05-6.1,9.17s0,49.62,0,49.62,3.43,12.47,38.26,14.42c0,0,7.21,1-10.95,1H230.83c-18.16,0-11-1-11-1,34.83-1.95,38.26-14.42,38.26-14.42s.08-41.5,0-49.62-6.1-9.17-6.1-9.17c-67.48-14.79-27.52-87.58-27.22-89.65a10,10,0,0,0-.52-4.25l35.19-.09h1M257,76.8h0l-32.64.09h-3.66l1.27,3.43a7.7,7.7,0,0,1,.41,2.8c-.13.3-.41.91-.68,1.5a136.08,136.08,0,0,0-9.34,26.93c-3.46,15.68-2.54,29,2.74,39.52,6.26,12.49,18.52,20.82,36.46,24.75l0,0h.05c.37.08,3.94,1,4,6.68.06,7.54,0,44.39,0,49.1-.82,1.63-6.66,10.74-35.85,12.38h-.11l-.11,0c-3.78.54-3.64,2.49-3.59,3.13.17,2.48,2.73,2.64,4.79,2.77s5.51.2,10.11.2h58.34c4.6,0,8-.07,10.11-.2s4.62-.29,4.8-2.77-2.66-3-3.6-3.13l-.11,0h-.11c-29.55-1.66-35.13-10.82-35.85-12.34,0-4.56-.08-41.58,0-49.14.05-5.68,3.62-6.6,4-6.68h.06c17.94-3.93,30.2-12.26,36.46-24.75,5.28-10.54,6.2-23.84,2.74-39.52a136.08,136.08,0,0,0-9.34-26.93c-.27-.59-.55-1.2-.68-1.5a7.81,7.81,0,0,1,.41-2.81l1.23-3.4-3.62,0L263,76.81H257Z"/><path class="cls-1" d="M102.82,233.28s-.13-62.29-.07-67.48,5.58-9.4,5.58-9.4c35.7-18.73,26.15-41.27,24.56-56.4-2.12-20.13-9.48-76.83-9.48-76.83L100.5,23h-1l-22.91.16S69.23,79.87,67.11,100c-1.6,15.13-11.14,37.67,24.56,56.4,0,0,5.52,4.21,5.58,9.4s-.07,67.48-.07,67.48-1.72,11-23.49,15.17c0,0-18.25,1.65,0,1.65h52.56c18.28,0,0-1.65,0-1.65C104.54,244.24,102.82,233.28,102.82,233.28Z"/><path class="cls-1" d="M455.65,247.38c-34.92-4.25-32.7-16.21-32.7-16.21s.34-32.68.59-50,1.53-16.09,3.07-22.38S447,131.4,447,131.4c30.4-25.81,5.69-67.4,5.69-67.4L421,63.77h-2L387.32,64s-24.7,41.59,5.7,67.4c0,0,18.83,21.08,20.37,27.37s2.82,5,3.08,22.38.58,50,.58,50,2.23,12-32.7,16.21c0,0-13.17,1.68.1,1.68,10.93,0,28.64.09,34.55.13h2c5.91,0,23.62-.13,34.55-.13C468.82,249.06,455.65,247.38,455.65,247.38Z"/><path class="cls-1" d="M606.49,247.14c-20.37-4.83-21.28-17.59-21.28-17.59s-.87-53.18-.07-60.53,4.86-9.55,4.86-9.55c30.32-17.39,25.39-36.72,25.39-36.72l-5.73-58.56L582.16,64h-4.3l-27.51.15-5.72,58.56S539.7,142.08,570,159.47c0,0,4.06,2.19,4.86,9.55s-.08,60.53-.08,60.53-.9,12.76-21.27,17.59c0,0-24.71,1.78-.14,1.78h53.24C631.2,248.92,606.49,247.14,606.49,247.14Z"/><path class="cls-1" d="M759.2,245.53c-13.59-6.43-14.89-13.41-14.89-13.41s-1.11-26,0-34.59,9.94-11.18,9.94-11.18c34.55-8.76,9.73-91.63,9.73-91.63l-24.86-.12v.05l-23,.11s-24.82,82.87,9.73,91.63c0,0,8.88,2.57,9.94,11.18s0,34.59,0,34.59-1.3,7-14.89,13.41c0,0-33.1,3.79-.09,3.31h20.21v0h18.37C792.3,249.32,759.2,245.53,759.2,245.53Z"/><g id="Name" class="cls-2"><text class="cls-3" transform="translate(58.83 281.63)">Bo<tspan class="cls-4" x="23.67" y="0">r</tspan><tspan x="30.35" y="0">deaux</tspan></text></g><g id="Name-2" data-name="Name" class="cls-2"><text class="cls-3" transform="translate(189.86 281.63)">A<tspan class="cls-4" x="12.33" y="0">r</tspan><tspan x="19.01" y="0">oma Collector</tspan></text></g><g id="Name-3" data-name="Name" class="cls-2"><text class="cls-3" transform="translate(398.01 281.63)">Rose</text></g><g id="Name-4" data-name="Name" class="cls-2"><text class="cls-3" transform="translate(540.01 281.63)">Universal</text></g><g id="Name-5" data-name="Name" class="cls-2"><text class="cls-3" transform="translate(715.51 281.63)">White</text></g><g id="Name-6" data-name="Name" class="cls-2"><text class="cls-3" transform="translate(859.46 281.63)">Big White</text></g></svg>