<?xml version="1.0" encoding="utf-8"?>
<!-- Generator: Adobe Illustrator 24.0.0, SVG Export Plug-In . SVG Version: 6.00 Build 0)  -->
<svg version="1.1" id="Layer_1" xmlns="http://www.w3.org/2000/svg" xmlns:xlink="http://www.w3.org/1999/xlink" x="0px" y="0px"
	 viewBox="0 0 97.9 97.8" style="enable-background:new 0 0 97.9 97.8;" xml:space="preserve">
<style type="text/css">
	.st0{fill:#F2D8B4;}
	.st1{fill:#7A4E27;}
	.st2{fill:#603913;}
	.st3{fill:#EEC08B;}
	.st4{fill:#3C2415;}
	.st5{fill:#F2D8B4;stroke:#C49A6C;stroke-miterlimit:10;}
	.st6{fill:#9A462B;}
	.st7{fill:none;}
</style>
<title>navigation-avatar2svg</title>
<g id="Layer_2_1_">
	<g id="Layer_1-2">
		<path id="Path_52" class="st0" d="M23.8,24.8c0,0-23.1,40.4,26.8,46.3c0,0,25.2,6.4,41.1-16.1l-3.4-6.4c0,0,5.6-0.1,3.3-7
			c0,0-3.5-5.5-7-0.5c0,0-6.4-1.1-5.8-14.5C78.9,26.6,54.3,44.4,23.8,24.8z"/>
		<path id="Path_53" class="st1" d="M80,17.1C111.4,18.5,91.9,57,91.9,57C75.3,38.4,79,27.3,79,27.3c-32.6,18-59.7-4.7-59.7-4.7
			c5.6-4.6,8.4-14.1,14-17C58.5-7.1,76.8,3.8,83.1,17.3"/>
		<path id="Path_54" class="st2" d="M52.2,53.6c0,0,8.2-5.4,14,1.7c0,0,4.7,4.3,6.4,1.2C72.6,56.5,69.6,69.3,52.2,53.6z"/>
		<path id="Path_55" class="st2" d="M52.3,53.7c0,0-2.3-6.7-12.6-3.1c-2.3,0.6-4.7-0.1-6.3-1.8C33.2,52.9,37.3,60.5,52.3,53.7z"/>
		<path id="Path_56" class="st3" d="M85.3,40.8c-0.9,1.9-1.2,4-0.9,6.1C86.1,62,57.3,81.8,21.8,57c5.6,10.6,53.6,28.7,69-1.3
			l-3.1-6.2c0,0,6.2-0.9,4-8.8C91.6,40.6,87.4,36,85.3,40.8z"/>
		
			<ellipse id="Ellipse_9" transform="matrix(9.879869e-02 -0.9951 0.9951 9.879869e-02 19.2311 108.5635)" class="st4" cx="69.6" cy="43.7" rx="4.3" ry="2.7"/>
		
			<ellipse id="Ellipse_10" transform="matrix(9.879869e-02 -0.9951 0.9951 9.879869e-02 -4.5978 73.01)" class="st4" cx="38" cy="39" rx="3.7" ry="2.3"/>
		<path id="Path_57" class="st5" d="M54.8,50.2c0,0,2.9,2.7,0.4,3c-2,0-4-0.2-5.9-0.8c0,0-1.5-1,1-2.7"/>
		<path id="Path_61" class="st2" d="M79.1,27.3c0,0-30.4,11.9-59.7-4.7C19.4,22.7,47.8,45.4,79.1,27.3z"/>
		<g id="Group_8">
			<path id="Rectangle_27" class="st6" d="M44.7,75.8l0.8-5c0.1-0.9,1-1.5,1.9-1.3l5,0.8c0.9,0.1,1.5,1,1.3,1.9l-0.8,5
				c-0.1,0.9-1,1.5-1.9,1.3l-5-0.8C45.2,77.6,44.6,76.7,44.7,75.8z"/>
			<path id="Path_50" class="st6" d="M45.2,70.1l-6.1-1.8c-1.1-0.3-2.2-0.1-2.3,1l-0.7,5.3c-0.2,1.2,0,1.7,1.3,1.5l7.3-0.8
				c0.8-0.1,1.4-0.8,1.5-1.6l0.1-1.8C46.4,71,45.9,70.3,45.2,70.1z"/>
			<path id="Path_51" class="st6" d="M52,76.3l5.8,2.4c1.1,0.4,2.1,0.3,2.4-0.8l1.2-5.2c0.2-1.1,0.1-1.7-1.1-1.6l-7.3,0.1
				c-0.8,0-1.5,0.6-1.7,1.4L51,74.5C50.9,75.2,51.3,76,52,76.3z"/>
		</g>
	</g>
</g>
<path id="SVGID_x5F_1_x5F_" class="st7" d="M11.7,77c0,0,25.8,28.1,71.5,8.3"/>
<text><textPath  xlink:href="#SVGID_x5F_1_x5F_" startOffset="19.5312%">
<tspan  style="font-family:'HelveticaNeue-Medium'; font-size:12px;">Navigation</tspan></textPath>
</text>
</svg>
