<svg id="Layer_1" data-name="Layer 1" xmlns="http://www.w3.org/2000/svg" viewBox="0 0 97.87 97.77"><defs><style>.cls-1,.cls-6{fill:#f2d8b4;}.cls-2{fill:#7a4e27;}.cls-3{fill:#603913;}.cls-4{fill:#eec08b;}.cls-5{fill:#3c2415;}.cls-6{stroke:#c49a6c;stroke-miterlimit:10;}.cls-7{fill:#9a462b;}.cls-8{font-size:12px;font-family:HelveticaNeue-Bold, Helvetica Neue;font-weight:700;}</style></defs><title>navigation-avatar2svg</title><g id="Layer_2" data-name="Layer 2"><g id="Layer_1-2" data-name="Layer 1"><path id="Path_52" data-name="Path 52" class="cls-1" d="M8.73,29.57S-14.42,70,35.5,75.92c0,0,25.17,6.4,41.13-16.08l-3.44-6.43s5.63-.09,3.33-7c0,0-3.53-5.46-7-.5,0,0-6.43-1.07-5.79-14.53C63.78,31.39,39.2,49.21,8.73,29.57Z" transform="translate(15.09 -4.79)"/><path id="Path_53" data-name="Path 53" class="cls-2" d="M64.91,21.85C96.27,23.34,76.8,61.8,76.8,61.8,60.17,43.18,63.93,32.13,63.93,32.13c-32.62,18-59.68-4.66-59.68-4.66,5.64-4.6,8.42-14.12,14-17C43.36-2.31,61.73,8.58,68,22.14" transform="translate(15.09 -4.79)"/><path id="Path_54" data-name="Path 54" class="cls-3" d="M37.16,58.44s8.25-5.39,14,1.7c0,0,4.74,4.32,6.38,1.18C57.55,61.32,54.46,74.1,37.16,58.44Z" transform="translate(15.09 -4.79)"/><path id="Path_55" data-name="Path 55" class="cls-3" d="M37.19,58.52s-2.28-6.7-12.63-3.14a6.24,6.24,0,0,1-6.32-1.81C18.06,57.7,22.25,65.25,37.19,58.52Z" transform="translate(15.09 -4.79)"/><path id="Path_56" data-name="Path 56" class="cls-4" d="M70.21,45.61a11.33,11.33,0,0,0-.91,6.07C71,66.84,42.18,86.59,6.66,61.74c5.57,10.57,53.64,28.72,69-1.26l-3.1-6.2s6.21-.86,4-8.84C76.48,45.43,72.31,40.76,70.21,45.61Z" transform="translate(15.09 -4.79)"/><ellipse id="Ellipse_9" data-name="Ellipse 9" class="cls-5" cx="54.46" cy="48.46" rx="4.31" ry="2.69" transform="translate(15.95 93.07) rotate(-84.33)"/><ellipse id="Ellipse_10" data-name="Ellipse 10" class="cls-5" cx="22.92" cy="43.84" rx="3.72" ry="2.26" transform="translate(-7.88 57.52) rotate(-84.33)"/><path id="Path_57" data-name="Path 57" class="cls-6" d="M39.69,55S42.6,57.7,40.1,58a18,18,0,0,1-5.86-.83s-1.49-1,1-2.72" transform="translate(15.09 -4.79)"/><path id="Path_61" data-name="Path 61" class="cls-3" d="M64,32.13S33.55,44,4.26,27.47C4.26,27.47,32.67,50.23,64,32.13Z" transform="translate(15.09 -4.79)"/><g id="Group_8" data-name="Group 8"><rect id="Rectangle_27" data-name="Rectangle 27" class="cls-7" x="29.69" y="74.44" width="8.27" height="8.27" rx="1.62" transform="matrix(0.16, -0.99, 0.99, 0.16, -33.96, 94.93)"/><path id="Path_50" data-name="Path 50" class="cls-7" d="M30.06,74.85,24,73c-1.12-.34-2.16-.13-2.27,1l-.67,5.26c-.19,1.15.05,1.73,1.27,1.51L29.62,80a1.79,1.79,0,0,0,1.52-1.58l.15-1.83A1.72,1.72,0,0,0,30.06,74.85Z" transform="translate(15.09 -4.79)"/><path id="Path_51" data-name="Path 51" class="cls-7" d="M36.94,81.09l5.81,2.38c1.09.43,2.14.34,2.37-.76l1.16-5.19c.24-1.13.11-1.72-1.12-1.62L37.83,76a1.8,1.8,0,0,0-1.66,1.44l-.29,1.81A1.71,1.71,0,0,0,36.94,81.09Z" transform="translate(15.09 -4.79)"/></g></g></g><text class="cls-8" transform="translate(18.64 85.74) rotate(16.42)">C</text><text class="cls-8" transform="translate(27.41 88.25) rotate(13.83)">l</text><text class="cls-8" transform="matrix(0.98, 0.22, -0.22, 0.98, 30.53, 89.02)">i</text><text class="cls-8" transform="translate(33.75 89.77) rotate(10)">c</text><text class="cls-8" transform="translate(40.86 91.02) rotate(6.31)">k</text><text class="cls-8" transform="translate(47.99 91.75) rotate(3.26)"> </text><text class="cls-8" transform="translate(51.76 92.11) rotate(-1.51)">M</text><text class="cls-8" transform="translate(63.24 91.67) rotate(-8.44)">e</text><text class="cls-8" transform="translate(70.44 90.52) rotate(-12.97)">!</text></svg>