<svg id="Layer_1" data-name="Layer 1" xmlns="http://www.w3.org/2000/svg" viewBox="0 0 104.89 132.88"><defs><style>.cls-1,.cls-6{fill:#f2d8b4;}.cls-2{fill:#7a4e27;}.cls-3{fill:#603913;}.cls-4{fill:#eec08b;}.cls-5{fill:#3c2415;}.cls-6{stroke:#c49a6c;stroke-miterlimit:10;}.cls-7{fill:#9a462b;}.cls-8{fill:none;}.cls-10,.cls-9{font-size:12px;}.cls-9{font-family:ArialMT, Arial;}.cls-10{font-family:HelveticaNeue-Medium, Helvetica Neue;font-weight:500;}</style></defs><title>Layer 2</title><g id="Layer_2" data-name="Layer 2"><g id="Layer_1-2" data-name="Layer 1"><path id="Path_52" data-name="Path 52" class="cls-1" d="M11.83,47.15S-16.94,97.34,45,104.73c0,0,31.3,7.94,51.08-20l-4.24-8s7-.13,4.16-8.7c0,0-4.4-6.78-8.6-.61,0,0-8-1.32-7.16-18.07C80.18,49.39,49.7,71.56,11.83,47.15Z" transform="translate(1.08 18.53)"/><path id="Path_53" data-name="Path 53" class="cls-2" d="M81.64,37.58c38.92,1.83,14.75,49.53,14.75,49.53C75.7,64,80.47,50.24,80.47,50.24,40,72.62,6.35,44.46,6.35,44.46c7-5.68,10.44-17.51,17.4-21.08C55,7.47,77.71,21,85.54,37.82" transform="translate(1.08 18.53)"/><path id="Path_54" data-name="Path 54" class="cls-3" d="M47.18,83s10.22-6.64,17.37,2.14c0,0,5.91,5.37,7.88,1.41C72.43,86.57,68.59,102.39,47.18,83Z" transform="translate(1.08 18.53)"/><path id="Path_55" data-name="Path 55" class="cls-3" d="M47.17,83.12s-2.88-8.28-15.71-3.92A8,8,0,0,1,23.59,77C23.38,82.1,28.63,91.42,47.17,83.12Z" transform="translate(1.08 18.53)"/><path id="Path_56" data-name="Path 56" class="cls-4" d="M88.2,67.08A15.12,15.12,0,0,0,87,74.59c2.1,18.87-33.66,43.33-77.79,12.49,6.94,13.1,66.59,35.62,85.65-1.59L91,77.77s7.72-1,4.87-10.92C96,66.86,90.76,61.07,88.2,67.08Z" transform="translate(1.08 18.53)"/><ellipse id="Ellipse_9" data-name="Ellipse 9" class="cls-5" cx="68.63" cy="70.59" rx="5.3" ry="3.3" transform="translate(-7.31 150.45) rotate(-84.33)"/><ellipse id="Ellipse_10" data-name="Ellipse 10" class="cls-5" cx="29.49" cy="64.83" rx="4.6" ry="2.8" transform="translate(-36.85 106.3) rotate(-84.33)"/><path id="Path_57" data-name="Path 57" class="cls-6" d="M50.31,78.72s3.57,3.32.5,3.6a23.1,23.1,0,0,1-7.32-1S41.64,80,44.67,77.92" transform="translate(1.08 18.53)"/><path id="Path_61" data-name="Path 61" class="cls-3" d="M80.45,50.33S42.74,65,6.34,44.56C6.34,44.56,41.56,72.74,80.45,50.33Z" transform="translate(1.08 18.53)"/><g id="Group_8" data-name="Group 8"><path id="Rectangle_27" data-name="Rectangle 27" class="cls-7" d="M47.28,103.46l-6.91-1.1a1.58,1.58,0,0,0-1.83,1.33l-1.1,6.92a1.58,1.58,0,0,0,1.33,1.83l6.92,1.09a1.58,1.58,0,0,0,1.83-1.33l1.09-6.91A1.58,1.58,0,0,0,47.28,103.46Z" transform="translate(1.08 18.53)"/><path id="Path_50" data-name="Path 50" class="cls-7" d="M38.39,103.36l-7.53-2.3c-1.35-.42-2.72-.13-2.82,1.17l-.84,6.55c-.22,1.38.07,2.14,1.63,1.88l9.05-.9a2.25,2.25,0,0,0,1.93-1.92l.16-2.3A2.35,2.35,0,0,0,38.39,103.36Z" transform="translate(1.08 18.53)"/><path id="Path_51" data-name="Path 51" class="cls-7" d="M46.88,111.09l7.23,3c1.34.51,2.67.42,3-1l1.43-6.46c.32-1.36.13-2.1-1.4-2l-9.12.07a2.37,2.37,0,0,0-2.11,1.8l-.36,2.27a2.15,2.15,0,0,0,1.35,2.34Z" transform="translate(1.08 18.53)"/></g></g></g><path id="SVGID_1_" class="cls-8" d="M9.12,34.41S25.1,11.86,54,11.86,99.85,27.78,99.85,27.78" transform="translate(1.08 18.53)"/><text class="cls-9" transform="translate(1.08 10.3)"> </text><text class="cls-10" transform="translate(31 33.46) rotate(-13.11)">C</text><text class="cls-10" transform="translate(39.29 31.64) rotate(-8.41)">l</text><text class="cls-10" transform="translate(42.05 31.23) rotate(-5.93)">i</text><text class="cls-10" transform="translate(44.79 30.86) rotate(-1.63)">c</text><text class="cls-10" transform="translate(51.25 30.67) rotate(4.55)">k</text><text class="cls-10" transform="matrix(0.99, 0.16, -0.16, 0.99, 57.51, 31.23)"> </text><text class="cls-10" transform="translate(60.64 31.5) rotate(16.22)">M</text><text class="cls-10" transform="translate(70.56 34.52) rotate(24.5)">e</text><text class="cls-10" transform="translate(76.45 37.28) rotate(29.01)">!</text></svg>