<svg id="Layer_1" data-name="Layer 1" xmlns="http://www.w3.org/2000/svg" viewBox="0 0 1000 141"><defs><style>.cls-1,.cls-2,.cls-3{isolation:isolate;}.cls-2{font-size:14px;}.cls-2,.cls-3{font-family:HelveticaNeue, Helvetica Neue;}.cls-3{font-size:12px;}.cls-4{letter-spacing:-0.02em;}.cls-5{letter-spacing:-0.05em;}.cls-6{fill:#e2eff9;}.cls-7{fill:#bfdaf1;}.cls-8{fill:#fff;}.cls-9{fill:none;stroke:#5688c2;stroke-miterlimit:10;stroke-width:1.5px;}</style></defs><title>sugar-level</title><g id="BOLD_DRY" data-name="BOLD DRY" class="cls-1"><text class="cls-2" transform="translate(72.78 138.35)">Bold Dry</text></g><g id="_0g_L" data-name=" 0g L" class="cls-1"><text class="cls-3" transform="translate(91.39 107.2)">0g/L</text></g><g id="_1-10_g_L" data-name=" 1-10 g L" class="cls-1"><text class="cls-3" transform="translate(280.5 64.5)">1-10 g/L</text></g><g id="DRY" class="cls-1"><text class="cls-2" transform="translate(289.24 138.35)">Dry</text></g><g id="_10_-35_g_L" data-name=" 10 -35 g L" class="cls-1"><text class="cls-3" transform="translate(471.43 64.5)">10 -35 g/L</text></g><g id="OFF-DRY" class="cls-1"><text class="cls-2" transform="translate(478 138.35)">O<tspan class="cls-4" x="10.64" y="0">f</tspan><tspan x="14.53" y="0">f-dry</tspan></text></g><g id="_35_-120_g_L" data-name=" 35 -120 g L" class="cls-1"><text class="cls-3" transform="translate(668.24 35.78)">35 -120 g/L</text></g><g id="SWEET" class="cls-1"><text class="cls-2" transform="translate(680.44 138.35)">Sweet</text></g><g id="_120_-220_g_L" data-name=" 120 -220 g L" class="cls-1"><text class="cls-3" transform="translate(870.12 13.58)">120 -220 g/L</text></g><g id="VERY_SWEET" data-name="VERY SWEET" class="cls-1"><text class="cls-2" transform="translate(865.01 138.35)"><tspan class="cls-5">V</tspan><tspan x="7.78" y="0">ery Sweet</tspan></text></g><polygon class="cls-6" points="282.14 86.46 301.04 93.44 301.27 117.24 282.36 109.31 282.14 86.46"/><polygon class="cls-7" points="320.31 86.09 301.04 93.44 301.27 117.24 320.54 108.79 320.31 86.09"/><polygon class="cls-8" points="301.24 79.02 320.31 86.09 301.04 93.44 282.14 86.46 301.24 79.02"/><polygon class="cls-9" points="301.23 79.02 282.13 86.46 282.35 109.31 301.26 117.24 320.53 108.79 320.31 86.09 301.23 79.02"/><polygon class="cls-6" points="459.2 86.46 478.1 93.44 478.33 117.24 459.42 109.31 459.2 86.46"/><polygon class="cls-7" points="497.38 86.09 478.1 93.44 478.33 117.24 497.6 108.79 497.38 86.09"/><polygon class="cls-8" points="478.3 79.02 497.38 86.09 478.1 93.44 459.2 86.46 478.3 79.02"/><polygon class="cls-9" points="478.29 79.02 459.19 86.46 459.41 109.31 478.32 117.24 497.59 108.79 497.37 86.09 478.29 79.02"/><polygon class="cls-6" points="497.6 86.46 516.51 93.44 516.74 117.24 497.82 109.31 497.6 86.46"/><polygon class="cls-7" points="535.78 86.09 516.51 93.44 516.74 117.24 536 108.79 535.78 86.09"/><polygon class="cls-8" points="516.7 79.02 535.78 86.09 516.51 93.44 497.6 86.46 516.7 79.02"/><polygon class="cls-9" points="516.7 79.02 497.6 86.46 497.82 109.31 516.73 117.24 535.99 108.79 535.77 86.09 516.7 79.02"/><polygon class="cls-6" points="658.68 86.46 677.58 93.44 677.81 117.24 658.9 109.31 658.68 86.46"/><polygon class="cls-7" points="696.85 86.09 677.58 93.44 677.81 117.24 697.07 108.79 696.85 86.09"/><polygon class="cls-8" points="677.78 79.02 696.85 86.09 677.58 93.44 658.68 86.46 677.78 79.02"/><polygon class="cls-9" points="677.77 79.02 658.67 86.46 658.89 109.31 677.8 117.24 697.07 108.79 696.85 86.09 677.77 79.02"/><polygon class="cls-6" points="697.08 86.46 715.98 93.44 716.21 117.24 697.3 109.31 697.08 86.46"/><polygon class="cls-7" points="735.26 86.09 715.98 93.44 716.21 117.24 735.48 108.79 735.26 86.09"/><polygon class="cls-8" points="716.18 79.02 735.26 86.09 715.98 93.44 697.08 86.46 716.18 79.02"/><polygon class="cls-9" points="716.17 79.02 697.07 86.46 697.29 109.31 716.21 117.24 735.47 108.79 735.25 86.09 716.17 79.02"/><polygon class="cls-6" points="677.66 55.3 696.56 62.28 696.79 86.09 677.88 78.15 677.66 55.3"/><polygon class="cls-7" points="715.84 54.93 696.56 62.28 696.79 86.09 716.06 77.64 715.84 54.93"/><polygon class="cls-8" points="696.76 47.87 715.84 54.93 696.56 62.28 677.66 55.3 696.76 47.87"/><polygon class="cls-9" points="696.75 47.87 677.65 55.3 677.87 78.15 696.78 86.09 716.05 77.64 715.83 54.93 696.75 47.87"/><polygon class="cls-6" points="865.02 86.46 883.92 93.44 884.15 117.24 865.24 109.31 865.02 86.46"/><polygon class="cls-7" points="903.19 86.09 883.92 93.44 884.15 117.24 903.41 108.79 903.19 86.09"/><polygon class="cls-8" points="884.12 79.02 903.19 86.09 883.92 93.44 865.02 86.46 884.12 79.02"/><polygon class="cls-9" points="884.11 79.02 865.01 86.46 865.23 109.31 884.14 117.24 903.4 108.79 903.19 86.09 884.11 79.02"/><polygon class="cls-6" points="903.42 86.46 922.32 93.44 922.55 117.24 903.64 109.31 903.42 86.46"/><polygon class="cls-7" points="941.6 86.09 922.32 93.44 922.55 117.24 941.82 108.79 941.6 86.09"/><polygon class="cls-8" points="922.52 79.02 941.6 86.09 922.32 93.44 903.42 86.46 922.52 79.02"/><polygon class="cls-9" points="922.51 79.02 903.41 86.46 903.63 109.31 922.55 117.24 941.81 108.79 941.59 86.09 922.51 79.02"/><polygon class="cls-6" points="884 55.3 902.9 62.28 903.13 86.09 884.22 78.15 884 55.3"/><polygon class="cls-7" points="922.18 54.93 902.9 62.28 903.13 86.09 922.4 77.64 922.18 54.93"/><polygon class="cls-8" points="903.1 47.87 922.18 54.93 902.9 62.28 884 55.3 903.1 47.87"/><polygon class="cls-9" points="903.09 47.87 883.99 55.3 884.21 78.15 903.12 86.09 922.39 77.64 922.17 54.93 903.09 47.87"/><polygon class="cls-6" points="903.2 62.8 922.11 69.79 922.34 93.59 903.42 85.66 903.2 62.8"/><polygon class="cls-7" points="941.38 62.44 922.11 69.79 922.34 93.59 941.6 85.14 941.38 62.44"/><polygon class="cls-8" points="922.3 55.37 941.38 62.44 922.11 69.79 903.2 62.8 922.3 55.37"/><polygon class="cls-9" points="922.29 55.37 903.19 62.8 903.41 85.66 922.33 93.59 941.59 85.14 941.37 62.44 922.29 55.37"/><polygon class="cls-6" points="884.23 31.65 903.13 38.63 903.36 62.44 884.45 54.5 884.23 31.65"/><polygon class="cls-7" points="922.4 31.28 903.13 38.63 903.36 62.44 922.62 53.99 922.4 31.28"/><polygon class="cls-8" points="903.33 24.22 922.4 31.28 903.13 38.63 884.23 31.65 903.33 24.22"/><polygon class="cls-9" points="903.32 24.22 884.22 31.65 884.44 54.5 903.35 62.44 922.62 53.99 922.4 31.28 903.32 24.22"/><polygon class="cls-6" points="864.72 62.8 883.63 69.79 883.86 93.59 864.94 85.66 864.72 62.8"/><polygon class="cls-7" points="902.9 62.44 883.63 69.79 883.86 93.59 903.12 85.14 902.9 62.44"/><polygon class="cls-8" points="883.82 55.37 902.9 62.44 883.63 69.79 864.72 62.8 883.82 55.37"/><polygon class="cls-9" points="883.82 55.37 864.72 62.8 864.94 85.66 883.85 93.59 903.11 85.14 902.89 62.44 883.82 55.37"/></svg>