<svg xmlns="http://www.w3.org/2000/svg" width="702.5" height="304.876" viewBox="0 0 702.5 304.876">
  <g id="Group_48" data-name="Group 48" transform="translate(-251 -230.124)">
    <text id="Type_something" data-name="Type something" transform="translate(498.5 426.5)" font-size="60" font-family="HelveticaNeue-Bold, Helvetica Neue" font-weight="700"><tspan x="0" y="0">Shades Of Wine</tspan></text>
    <g id="wine-02" transform="matrix(1, -0.017, 0.017, 1, 191.852, 179.473)" opacity="0.841">
      <path id="Path_27" data-name="Path 27" d="M197.713,82.42v41.839s-20.691,15.75-21.148,31.956,2.7,127.822,2.7,127.822,22.6,21.228,54.541,1.883c0,0,3.287-97.647,3.036-131.451-1.575-9.552-7.281-20.429-22.118-31.442l.628-40.561Z" transform="translate(16.089 3.848)" fill="#fff" stroke="#231f20" stroke-miterlimit="10" stroke-width="1"/>
      <path id="Path_28" data-name="Path 28" d="M178.2,187.5l1.849,80.014s27.071,21.844,52.5,0l2.214-80.014S197.727,193.9,178.2,187.5Z" transform="translate(16.326 18.693)" fill="#77131b"/>
      <path id="Path_29" data-name="Path 29" d="M178.2,187.946a112.78,112.78,0,0,1,56.55,0S209.653,198.48,178.2,187.946Z" transform="translate(16.326 18.247)" fill="#a5464e"/>
      <line id="Line_25" data-name="Line 25" x1="13.764" transform="translate(216.93 72.584)" fill="#fff" stroke="#231f20" stroke-miterlimit="10" stroke-width="1"/>
      <rect id="Rectangle_22" data-name="Rectangle 22" width="15.031" height="15.738" transform="translate(214.841 55.18)" fill="#fff" stroke="#231f20" stroke-miterlimit="10" stroke-width="1"/>
      <path id="Path_30" data-name="Path 30" d="M195.7,68.97h16.64v1.666h1.335v4.074h1.335V84.32H193.884v-1.6H192.56V75.338l1.963-.08-.16-4.234,1.175-.08Z" transform="translate(18.355 1.948)" fill="#fff" stroke="#231f20" stroke-miterlimit="10" stroke-width="1"/>
      <path id="Path_31" data-name="Path 31" d="M210.33,127.351s9.313-4.462,8.913,48.607,0,97.236,0,97.236" transform="translate(20.865 10.183)" fill="none" stroke="#231f20" stroke-miterlimit="10" stroke-width="1"/>
      <path id="Path_32" data-name="Path 32" d="M194.28,74.48h0" transform="translate(18.598 2.726)" fill="#fff" stroke="#231f20" stroke-miterlimit="10" stroke-width="1"/>
      <line id="Line_26" data-name="Line 26" x1="14.779" transform="translate(215.914 72.584)" fill="#fff" stroke="#231f20" stroke-miterlimit="10" stroke-width="1"/>
      <line id="Line_27" data-name="Line 27" x2="34.638" transform="translate(228.936 148.262)" fill="#fff" stroke="#d1d3d4" stroke-miterlimit="10" stroke-width="1"/>
      <line id="Line_28" data-name="Line 28" x2="24.503" transform="translate(235.658 195.864)" fill="#fff" stroke="#bcbec0" stroke-miterlimit="10" stroke-width="1"/>
      <line id="Line_29" data-name="Line 29" x2="40.081" transform="translate(231.15 263.233)" fill="#fff" stroke="#d1d3d4" stroke-miterlimit="10" stroke-width="1"/>
      <path id="Path_48" data-name="Path 48" d="M0,0H34.672" transform="translate(186.982 113.116)" fill="#fff" stroke="#bcbec0" stroke-width="1"/>
      <text id="BOLDNESS" transform="translate(267.876 150.781)" fill="#bcbec0" font-size="8" font-family="Helvetica-Light, Helvetica" font-weight="300"><tspan x="0" y="0">BOLDNESS</tspan></text>
      <text id="SWEETNESS" transform="translate(263.573 199.052)" fill="#bcbec0" font-size="9" font-family="Helvetica-Light, Helvetica" font-weight="300"><tspan x="0" y="0">SWEETNESS</tspan></text>
      <text id="COLOR" transform="translate(274.758 265.844)" fill="#bcbec0" font-size="8" font-family="Helvetica-Light, Helvetica" font-weight="300"><tspan x="0" y="0">COLOR</tspan></text>
      <text id="FLAVOR" transform="translate(144.63 115.293)" fill="#bcbec0" font-size="9" font-family="Helvetica-Light, Helvetica" font-weight="300"><tspan x="0" y="0">FLAVOR</tspan></text>
    </g>
    <text id="An_Introduction_to_Popular_Wines_for_the_Masses_" data-name="An Introduction to Popular Wines for the Masses
" transform="translate(498.5 446)" font-size="20" font-family="HelveticaNeue, Helvetica Neue"><tspan x="3.79" y="19">An Introduction to Popular Wines for the Masses</tspan><tspan x="220.5" y="43"></tspan></text>
    <g id="bartender-03" transform="translate(175.581 211.849)">
      <path id="Path_33" data-name="Path 33" d="M143.63,232.58l18.978,19.043,11.3-21.993,10.992,44.849L143.63,277.99Z" transform="translate(-5.522 -9.378)" fill="#231f20"/>
      <rect id="Rectangle_23" data-name="Rectangle 23" width="7.268" height="7.268" rx="1.618" transform="translate(151.43 226.201) rotate(-7.481)" fill="#9a462b"/>
      <path id="Path_34" data-name="Path 34" d="M165.528,237.058l5.193-1.838a1.636,1.636,0,0,1,2.206,1.186l.7,4.163a1.581,1.581,0,0,1-1.838,1.746l-5.661-.68a1.581,1.581,0,0,1-1.415-1.314l-.211-1.636A1.516,1.516,0,0,1,165.528,237.058Z" transform="translate(-7.211 -9.822)" fill="#9a462b"/>
      <path id="Path_35" data-name="Path 35" d="M156.971,238.421l-6.01-.993a1.167,1.167,0,0,0-1.342,1.323l.8,5.128a1.167,1.167,0,0,0,1.5.919l5.514-1.691a1.158,1.158,0,0,0,.809-1.259l-.3-2.435a1.167,1.167,0,0,0-.965-.993Z" transform="translate(-6.006 -10.009)" fill="#9a462b"/>
      <path id="Path_36" data-name="Path 36" d="M200.627,161.476s26.413,65.941-50.29,64.333c0,0-39.372,4.329-58.717-33.012l6.516-8.951s-8.446-1.333-3.492-11.267c0,0,6.488-7.5,10.6.726,0,0,9.944-.248,11.828-20.724C117.068,152.534,150.429,184.682,200.627,161.476Z" transform="translate(-1.312 -3.141)" fill="#f2d8b4"/>
      <path id="Path_37" data-name="Path 37" d="M104.339,174.085s-8.832,64.59,87.906,42.478c-18.151,12.1-71.29,28.977-100.635-22.1L98.3,184.231s-8.455-.184-3.391-11.764C94.909,172.467,102.2,166.337,104.339,174.085Z" transform="translate(-1.311 -4.564)" fill="#eec08b"/>
      <path id="Path_38" data-name="Path 38" d="M116.916,134.744c-47.68-4.43-26.432,57.835-26.432,57.835,29.069-24.6,25.733-42.11,25.733-42.11,45.474,34.2,91.169,5.643,91.169,5.643-7.545-8.143-9.733-23.114-17.572-28.61-35.208-24.685-65.252-12.141-77.668,7.012" transform="translate(-0.838 0)" fill="#7a4e27"/>
      <path id="Path_39" data-name="Path 39" d="M165.233,198.133s-11.323-9.88-21.524-.4c0,0-8.069,5.514-9.889.414C133.82,198.151,135.824,218.122,165.233,198.133Z" transform="translate(-4.728 -6.463)" fill="#603913"/>
      <path id="Path_40" data-name="Path 40" d="M168,198.092s4.88-9.659,19.769-2.049c0,0,2.7,1.507,6.259-2.178C194.027,193.864,189.138,211.391,168,198.092Z" transform="translate(-7.495 -6.423)" fill="#603913"/>
      <ellipse id="Ellipse_3" data-name="Ellipse 3" cx="4.102" cy="6.561" rx="4.102" ry="6.561" transform="translate(121.598 170.498) rotate(-7.481)" fill="#3c2415"/>
      <ellipse id="Ellipse_4" data-name="Ellipse 4" cx="3.446" cy="5.68" rx="3.446" ry="5.68" transform="translate(175.584 168.049) rotate(-3.47)" fill="#3c2415"/>
      <path id="Path_41" data-name="Path 41" d="M166.08,188.946s4.448-1.93,6.433,1.066-5.248,3.676-5.248,3.676" transform="translate(-7.34 -6.035)" fill="none" stroke="#3c2415" stroke-miterlimit="10" stroke-width="1"/>
      <path id="Path_42" data-name="Path 42" d="M111.606,248.524s.671-1.434-1.415-1.645-12.03,1.645-12.03,1.645,2.757,5.753,12.03,5.68Z" transform="translate(-1.841 -10.774)" fill="#eec08b"/>
      <path id="Path_43" data-name="Path 43" d="M176.57,230.83s9.834,21.248,36.651.864l2.978,5.064s-29.878,21.928-39.307-.7C176.34,234.736,176.772,232.539,176.57,230.83Z" transform="translate(-8.189 -9.476)" fill="#231f20"/>
      <path id="Path_44" data-name="Path 44" d="M140.99,234.41s-2.39,29.841-28.325,13.106l-1.415,5.68S147.782,270.482,140.99,234.41Z" transform="translate(-2.901 -9.765)" fill="#231f20"/>
      <ellipse id="Ellipse_5" data-name="Ellipse 5" cx="25.935" cy="4.788" rx="25.935" ry="4.788" transform="translate(75.419 231.793) rotate(-7.29)" fill="#bcbec0"/>
      <ellipse id="Ellipse_6" data-name="Ellipse 6" cx="21.496" cy="3.97" rx="21.496" ry="3.97" transform="translate(80.357 231.266) rotate(-7.29)" fill="#e6e7e8"/>
      <rect id="Rectangle_24" data-name="Rectangle 24" width="6.056" height="5.229" rx="0.61" transform="translate(88.093 177.493) rotate(-6.32)" fill="#ae3b5e"/>
      <g id="Group_9" data-name="Group 9">
        <path id="Path_45" data-name="Path 45" d="M90.278,188.643l1.232,11.433s-4.255,1.222-3.97,3.768l4.044,36.449s.349,1.838,6.314,1.066,6-1.149,7.27-2.114l-3.152-28.426-.919-8.63a5.358,5.358,0,0,0-4.761-2.665L95.112,188.11Z" transform="translate(-0.98 -6.017)" fill="#715f77"/>
        <path id="Path_46" data-name="Path 46" d="M90.11,218.232l2.656,24.281a18.547,18.547,0,0,0,11.506-1.268L101.616,217A24.987,24.987,0,0,1,90.11,218.232Z" transform="translate(-1.189 -8.356)" fill="#524757"/>
        <ellipse id="Ellipse_7" data-name="Ellipse 7" cx="5.965" cy="0.855" rx="5.965" ry="0.855" transform="translate(88.636 209.056) rotate(-6.32)" fill="#525062"/>
        <path id="Path_47" data-name="Path 47" d="M89.9,183.543l.46,4.081a.524.524,0,0,0,.57.505l4.439-.487a.561.561,0,0,0,.45-.616l-.46-4.081a.524.524,0,0,0-.57-.505l-4.439.487A.551.551,0,0,0,89.9,183.543Z" transform="translate(-1.172 -5.558)" fill="#d25a79"/>
        <rect id="Rectangle_25" data-name="Rectangle 25" width="7.15" height="21.561" transform="translate(93.908 205.589) rotate(-6.32)" fill="#dd537d"/>
      </g>
      <ellipse id="Ellipse_8" data-name="Ellipse 8" cx="4.448" cy="4.751" rx="4.448" ry="4.751" transform="translate(203.709 218.689)" fill="#eec08b"/>
      <rect id="Rectangle_26" data-name="Rectangle 26" width="60.041" height="1.544" transform="translate(203.706 230.853) rotate(-64.04)" fill="#414042"/>
    </g>
  </g>
</svg>
