<svg id="Layer_1" data-name="Layer 1" xmlns="http://www.w3.org/2000/svg" viewBox="0 0 1200 147.17"><defs><style>.cls-1{fill:#f2eaa0;}.cls-2{fill:#dbdadb;}.cls-3{fill:#bcbec0;}.cls-4{fill:#f4efce;}.cls-5{fill:#414042;}.cls-6{fill:none;stroke:#939598;stroke-miterlimit:10;}.cls-7{fill:#4c7738;}.cls-8{fill:#465b2e;}.cls-9{fill:#060707;}.cls-10{fill:#e6dbce;}.cls-11{fill:#d7c9b9;}.cls-12{fill:#c28e93;}.cls-13{fill:#d3a2a5;}</style></defs><title>wine</title><path class="cls-1" d="M193.75.85V30.61s.95,4.26-8.57,42.72c0,0-.48,1.56,0,12.75s-.21,57.39-.21,57.39,17.83,8.33,30.92,0V73.58s-7.14-34.88-8.57-42L206.37.85S201.85-1.06,193.75.85Z"/><path class="cls-2" d="M193.88.58a35.92,35.92,0,0,1,12.66,0s.31,8.06.11,10.06a63,63,0,0,0-12.66,0Z"/><path class="cls-3" d="M197.34.13c-2.14.15-3.46.32-3.46.32V10.51h3.46Z"/><path class="cls-4" d="M202.15,29.85h3.09s5.36,35.86,7,45.54V142s-5.15,1.86-7.21,0S207.3,70.86,202.15,29.85Z"/><path class="cls-5" d="M185.09,95.1s23.12-3.16,31,1v34.63a43,43,0,0,1-31,0Z"/><polygon class="cls-2" points="207.2 29.85 193.88 29.85 193.88 10.4 206.71 10.4 207.2 29.85"/><rect class="cls-3" x="193.88" y="10.4" width="3.46" height="19.45"/><path class="cls-6" d="M193.88,10.4a35.37,35.37,0,0,1,12.83,0"/><path class="cls-6" d="M193.88,2.67a35.1,35.1,0,0,1,12.83,0"/><path class="cls-6" d="M206.71,5.88a40.45,40.45,0,0,0-8-.54"/><path class="cls-6" d="M194,8.1a23.57,23.57,0,0,1,8.25-.53"/><path class="cls-7" d="M263.69,3.5V32.72s1,4.18-9.07,42c0,0-.51,1.53,0,12.52s-.23,56.34-.23,56.34,18.88,8.19,32.74,0V74.92s-7.56-34.25-9.07-41.27l-1-30.15S272.26,1.63,263.69,3.5Z"/><path class="cls-2" d="M263.83,3.23a41.14,41.14,0,0,1,13.4,0s.32,7.92.11,9.88a72.55,72.55,0,0,0-13.4,0Z"/><path class="cls-3" d="M267.49,2.79c-2.27.15-3.66.31-3.66.31V13h3.66Z"/><path class="cls-8" d="M269.35,32H266s-5.86,36-7.66,45.33v64.43s5.63,1.8,7.88,0S263.71,71.67,269.35,32Z"/><path class="cls-5" d="M254.53,96s24.47-3.1,32.79.93v34a48.84,48.84,0,0,1-32.79,0Z"/><polygon class="cls-2" points="277.93 31.97 263.83 31.97 263.83 12.88 277.41 12.88 277.93 31.97"/><rect class="cls-3" x="263.83" y="12.88" width="3.66" height="19.09"/><path class="cls-6" d="M263.83,12.88a40.22,40.22,0,0,1,13.58,0"/><path class="cls-6" d="M263.83,5.28a40.22,40.22,0,0,1,13.58,0"/><path class="cls-6" d="M277.41,8.44A46.08,46.08,0,0,0,269,7.91"/><path class="cls-6" d="M263.91,10.62a26.91,26.91,0,0,1,8.73-.52"/><path class="cls-9" d="M350.61,31.58,360,60.16A68.23,68.23,0,0,1,364,80.86c.17,10.59,1,59.64,1,59.64a7.64,7.64,0,0,1-2.93,5.38c-3.7,2.55-32.69.53-32.69.53s-2.51.61-3.33-7.7-.23-31.54-.05-57.57a75,75,0,0,1,4.48-20c3-8.44,5.29-19.22,9.2-29.55Z"/><path class="cls-10" d="M349.9,3.33h-9.09a2.21,2.21,0,0,0-2.21,2.21V7.2a2.21,2.21,0,0,0,2.21,2.21H340l-.39,22.67L350.9,32V9.41h-1a2.21,2.21,0,0,0,2.21-2.21V5.54A2.21,2.21,0,0,0,349.9,3.33Z"/><path class="cls-11" d="M340,31.58h3.72V3.33h-2.89a2.21,2.21,0,0,0-2.21,2.21V7.2a2.21,2.21,0,0,0,2.21,2.21H340Z"/><rect class="cls-12" x="330.55" y="84.39" width="29.05" height="52.32"/><rect class="cls-13" x="331.77" y="85.95" width="26.61" height="47.94"/><path class="cls-1" d="M412.12.85V30.61s.95,4.26-8.58,42.72c0,0-.47,1.56,0,12.75s-.21,57.39-.21,57.39,17.83,8.33,30.93,0V73.58s-7.14-34.88-8.57-42L424.74.85S420.21-1.06,412.12.85Z"/><path class="cls-2" d="M412.25.58a35.88,35.88,0,0,1,12.65,0s.31,8.06.11,10.06a63,63,0,0,0-12.66,0Z"/><path class="cls-3" d="M415.71.13c-2.15.15-3.46.32-3.46.32V10.51h3.46Z"/><path class="cls-4" d="M420.52,29.85h3.09s5.36,35.86,7,45.54V142s-5.16,1.86-7.22,0S425.67,70.86,420.52,29.85Z"/><path class="cls-5" d="M403.46,95.1s23.12-3.16,31,1v34.63a43,43,0,0,1-31,0Z"/><polygon class="cls-2" points="425.57 29.85 412.25 29.85 412.25 10.4 425.08 10.4 425.57 29.85"/><rect class="cls-3" x="412.25" y="10.4" width="3.46" height="19.45"/><path class="cls-6" d="M412.25,10.4a35.37,35.37,0,0,1,12.83,0"/><path class="cls-6" d="M412.25,2.67a35.1,35.1,0,0,1,12.83,0"/><path class="cls-6" d="M425.08,5.88a40.49,40.49,0,0,0-8-.54"/><path class="cls-6" d="M412.32,8.1a23.61,23.61,0,0,1,8.25-.53"/><path class="cls-7" d="M482.06,3.5V32.72s1,4.18-9.08,42c0,0-.5,1.53,0,12.52s-.22,56.34-.22,56.34,18.87,8.19,32.73,0V74.92s-7.56-34.25-9.07-41.27l-1-30.15S490.62,1.63,482.06,3.5Z"/><path class="cls-2" d="M482.19,3.23a41.14,41.14,0,0,1,13.4,0s.33,7.92.11,9.88a72.55,72.55,0,0,0-13.4,0Z"/><path class="cls-3" d="M485.85,2.79c-2.26.15-3.66.31-3.66.31V13h3.66Z"/><path class="cls-8" d="M487.71,32h-3.38s-5.86,36-7.66,45.33v64.43s5.63,1.8,7.89,0S482.08,71.67,487.71,32Z"/><path class="cls-5" d="M472.89,96s24.47-3.1,32.79.93v34a48.84,48.84,0,0,1-32.79,0Z"/><polygon class="cls-2" points="496.29 31.97 482.19 31.97 482.19 12.88 495.78 12.88 496.29 31.97"/><rect class="cls-3" x="482.19" y="12.88" width="3.66" height="19.09"/><path class="cls-6" d="M482.19,12.88a40.27,40.27,0,0,1,13.59,0"/><path class="cls-6" d="M482.19,5.28a40.27,40.27,0,0,1,13.59,0"/><path class="cls-6" d="M495.78,8.44a46.13,46.13,0,0,0-8.44-.53"/><path class="cls-6" d="M482.28,10.62A26.87,26.87,0,0,1,491,10.1"/><path class="cls-9" d="M569,31.58l9.34,28.58a68.08,68.08,0,0,1,4.08,20.7c.16,10.59,1,59.64,1,59.64a7.68,7.68,0,0,1-2.94,5.38c-3.7,2.55-32.68.53-32.68.53s-2.52.61-3.33-7.7-.24-31.54,0-57.57a74.88,74.88,0,0,1,4.47-20c3-8.44,5.29-19.22,9.21-29.55Z"/><path class="cls-10" d="M568.27,3.33h-9.09A2.21,2.21,0,0,0,557,5.54V7.2a2.21,2.21,0,0,0,2.21,2.21h-.84L558,32.08,569.26,32V9.41h-1a2.2,2.2,0,0,0,2.2-2.21V5.54A2.2,2.2,0,0,0,568.27,3.33Z"/><path class="cls-11" d="M558.34,31.58h3.72V3.33h-2.88A2.21,2.21,0,0,0,557,5.54V7.2a2.21,2.21,0,0,0,2.21,2.21h-.84Z"/><rect class="cls-12" x="548.91" y="84.39" width="29.05" height="52.32"/><rect class="cls-13" x="550.13" y="85.95" width="26.61" height="47.94"/><path class="cls-1" d="M630.48.85V30.61s.95,4.26-8.57,42.72c0,0-.48,1.56,0,12.75s-.21,57.39-.21,57.39,17.83,8.33,30.92,0V73.58s-7.14-34.88-8.57-42L643.1.85S638.58-1.06,630.48.85Z"/><path class="cls-2" d="M630.61.58a35.92,35.92,0,0,1,12.66,0s.31,8.06.11,10.06a63,63,0,0,0-12.66,0Z"/><path class="cls-3" d="M634.07.13c-2.14.15-3.46.32-3.46.32V10.51h3.46Z"/><path class="cls-4" d="M638.88,29.85H642s5.36,35.86,7,45.54V142s-5.15,1.86-7.21,0S644,70.86,638.88,29.85Z"/><path class="cls-5" d="M621.82,95.1s23.12-3.16,31,1v34.63a43,43,0,0,1-31,0Z"/><polygon class="cls-2" points="643.93 29.85 630.61 29.85 630.61 10.4 643.44 10.4 643.93 29.85"/><rect class="cls-3" x="630.61" y="10.4" width="3.46" height="19.45"/><path class="cls-6" d="M630.61,10.4a35.37,35.37,0,0,1,12.83,0"/><path class="cls-6" d="M630.61,2.67a35.1,35.1,0,0,1,12.83,0"/><path class="cls-6" d="M643.44,5.88a40.45,40.45,0,0,0-8-.54"/><path class="cls-6" d="M630.69,8.1a23.57,23.57,0,0,1,8.25-.53"/><path class="cls-7" d="M700.42,3.5V32.72s1,4.18-9.07,42c0,0-.51,1.53,0,12.52s-.23,56.34-.23,56.34,18.88,8.19,32.74,0V74.92s-7.56-34.25-9.07-41.27l-1-30.15S709,1.63,700.42,3.5Z"/><path class="cls-2" d="M700.56,3.23a41.14,41.14,0,0,1,13.4,0s.32,7.92.11,9.88a72.55,72.55,0,0,0-13.4,0Z"/><path class="cls-3" d="M704.22,2.79c-2.27.15-3.66.31-3.66.31V13h3.66Z"/><path class="cls-8" d="M706.08,32H702.7s-5.86,36-7.66,45.33v64.43s5.63,1.8,7.88,0S700.44,71.67,706.08,32Z"/><path class="cls-5" d="M691.26,96s24.47-3.1,32.79.93v34a48.84,48.84,0,0,1-32.79,0Z"/><polygon class="cls-2" points="714.66 31.97 700.56 31.97 700.56 12.88 714.14 12.88 714.66 31.97"/><rect class="cls-3" x="700.56" y="12.88" width="3.66" height="19.09"/><path class="cls-6" d="M700.56,12.88a40.22,40.22,0,0,1,13.58,0"/><path class="cls-6" d="M700.56,5.28a40.22,40.22,0,0,1,13.58,0"/><path class="cls-6" d="M714.14,8.44a46.08,46.08,0,0,0-8.44-.53"/><path class="cls-6" d="M700.64,10.62a26.91,26.91,0,0,1,8.73-.52"/><path class="cls-9" d="M787.34,31.58l9.35,28.58a68.23,68.23,0,0,1,4.07,20.7c.17,10.59,1,59.64,1,59.64a7.64,7.64,0,0,1-2.93,5.38c-3.7,2.55-32.69.53-32.69.53s-2.51.61-3.33-7.7-.23-31.54,0-57.57a75,75,0,0,1,4.48-20c3-8.44,5.29-19.22,9.2-29.55Z"/><path class="cls-10" d="M786.63,3.33h-9.09a2.21,2.21,0,0,0-2.21,2.21V7.2a2.21,2.21,0,0,0,2.21,2.21h-.83l-.39,22.67L787.63,32V9.41h-1a2.21,2.21,0,0,0,2.21-2.21V5.54A2.21,2.21,0,0,0,786.63,3.33Z"/><path class="cls-11" d="M776.71,31.58h3.72V3.33h-2.89a2.21,2.21,0,0,0-2.21,2.21V7.2a2.21,2.21,0,0,0,2.21,2.21h-.83Z"/><rect class="cls-12" x="767.28" y="84.39" width="29.05" height="52.32"/><rect class="cls-13" x="768.5" y="85.95" width="26.61" height="47.94"/><path class="cls-1" d="M848.85.85V30.61s.95,4.26-8.58,42.72c0,0-.47,1.56,0,12.75s-.21,57.39-.21,57.39,17.83,8.33,30.93,0V73.58s-7.14-34.88-8.57-42L861.47.85S856.94-1.06,848.85.85Z"/><path class="cls-2" d="M849,.58a35.94,35.94,0,0,1,12.66,0s.31,8.06.11,10.06a63,63,0,0,0-12.66,0Z"/><path class="cls-3" d="M852.44.13c-2.15.15-3.47.32-3.47.32V10.51h3.47Z"/><path class="cls-4" d="M857.25,29.85h3.09s5.36,35.86,7,45.54V142s-5.16,1.86-7.22,0S862.4,70.86,857.25,29.85Z"/><path class="cls-5" d="M840.19,95.1s23.12-3.16,31,1v34.63a43,43,0,0,1-31,0Z"/><polygon class="cls-2" points="862.3 29.85 848.98 29.85 848.98 10.4 861.81 10.4 862.3 29.85"/><rect class="cls-3" x="848.97" y="10.4" width="3.46" height="19.45"/><path class="cls-6" d="M849,10.4a35.44,35.44,0,0,1,12.84,0"/><path class="cls-6" d="M849,2.67a35.16,35.16,0,0,1,12.84,0"/><path class="cls-6" d="M861.81,5.88a40.49,40.49,0,0,0-8-.54"/><path class="cls-6" d="M849.05,8.1a23.61,23.61,0,0,1,8.25-.53"/><path class="cls-7" d="M918.79,3.5V32.72s1,4.18-9.08,42c0,0-.5,1.53,0,12.52s-.22,56.34-.22,56.34,18.87,8.19,32.73,0V74.92s-7.56-34.25-9.07-41.27l-1-30.15S927.35,1.63,918.79,3.5Z"/><path class="cls-2" d="M918.92,3.23a41.14,41.14,0,0,1,13.4,0s.33,7.92.11,9.88a72.55,72.55,0,0,0-13.4,0Z"/><path class="cls-3" d="M922.58,2.79c-2.26.15-3.66.31-3.66.31V13h3.66Z"/><path class="cls-8" d="M924.44,32h-3.38s-5.86,36-7.66,45.33v64.43s5.63,1.8,7.89,0S918.81,71.67,924.44,32Z"/><path class="cls-5" d="M909.62,96s24.47-3.1,32.79.93v34a48.84,48.84,0,0,1-32.79,0Z"/><polygon class="cls-2" points="933.02 31.97 918.92 31.97 918.92 12.88 932.51 12.88 933.02 31.97"/><rect class="cls-3" x="918.92" y="12.88" width="3.66" height="19.09"/><path class="cls-6" d="M918.92,12.88a40.27,40.27,0,0,1,13.59,0"/><path class="cls-6" d="M918.92,5.28a40.27,40.27,0,0,1,13.59,0"/><path class="cls-6" d="M932.51,8.44a46.13,46.13,0,0,0-8.44-.53"/><path class="cls-6" d="M919,10.62a26.87,26.87,0,0,1,8.73-.52"/><path class="cls-9" d="M1005.71,31.58l9.34,28.58a68.08,68.08,0,0,1,4.08,20.7c.16,10.59,1,59.64,1,59.64a7.68,7.68,0,0,1-2.94,5.38c-3.7,2.55-32.68.53-32.68.53s-2.52.61-3.33-7.7-.24-31.54,0-57.57a74.88,74.88,0,0,1,4.47-20c3-8.44,5.29-19.22,9.21-29.55Z"/><path class="cls-10" d="M1005,3.33h-9.09a2.21,2.21,0,0,0-2.21,2.21V7.2a2.21,2.21,0,0,0,2.21,2.21h-.84l-.39,22.67L1006,32V9.41h-1a2.21,2.21,0,0,0,2.2-2.21V5.54A2.21,2.21,0,0,0,1005,3.33Z"/><path class="cls-11" d="M995.07,31.58h3.72V3.33h-2.88a2.21,2.21,0,0,0-2.21,2.21V7.2a2.21,2.21,0,0,0,2.21,2.21h-.84Z"/><rect class="cls-12" x="985.64" y="84.39" width="29.05" height="52.32"/><rect class="cls-13" x="986.86" y="85.95" width="26.61" height="47.94"/></svg>