<svg id="Layer_1" data-name="Layer 1" xmlns="http://www.w3.org/2000/svg" viewBox="0 0 1200 147.17"><defs><style>.cls-1{fill:#f1eaa8;}.cls-2{fill:#dbdadb;}.cls-3{fill:#bcbec0;}.cls-4{fill:#f3efd1;}.cls-5{fill:#414042;}.cls-54,.cls-6{fill:none;stroke-miterlimit:10;}.cls-6{stroke:#949598;}.cls-7{font-size:5px;}.cls-38,.cls-53,.cls-69,.cls-7{fill:#fff;}.cls-61,.cls-69,.cls-7,.cls-73,.cls-80{font-family:AmericanTypewriter-Bold, American Typewriter;}.cls-15,.cls-20,.cls-27,.cls-61,.cls-69,.cls-7,.cls-73,.cls-80{font-weight:700;}.cls-8{letter-spacing:-0.02em;}.cls-9{letter-spacing:0em;}.cls-10{fill:#060707;}.cls-11{fill:#e4dbd0;}.cls-12{fill:#d5c9bb;}.cls-13{fill:#ba9093;}.cls-14{fill:#cba4a6;}.cls-15{font-size:3.08px;font-family:CourierNewPS-BoldMT, Courier New;}.cls-15,.cls-20,.cls-27,.cls-35,.cls-61,.cls-73,.cls-80{fill:#221f20;}.cls-16{fill:#151515;}.cls-17{fill:#2d2d2d;}.cls-18{fill:#e3e3e1;}.cls-19{fill:#f4f4f4;}.cls-20{font-size:3.4px;}.cls-20,.cls-27{font-family:Noteworthy-Bold, Noteworthy;}.cls-21{letter-spacing:0.01em;}.cls-22{letter-spacing:-0.04em;}.cls-23{letter-spacing:0.02em;}.cls-24{letter-spacing:0.02em;}.cls-25{letter-spacing:-0.02em;}.cls-26{letter-spacing:0.01em;}.cls-27{font-size:2.56px;}.cls-28{letter-spacing:0.01em;}.cls-29{letter-spacing:-0.01em;}.cls-30{letter-spacing:-0.05em;}.cls-31{letter-spacing:0.03em;}.cls-32{fill:#090909;}.cls-33{fill:#f1f2ee;}.cls-34{fill:#e0e0e0;}.cls-36{fill:#e3dea2;}.cls-37{fill:#929d50;}.cls-38{opacity:0.41;}.cls-39{fill:#f8f3da;}.cls-40{fill:#848f46;}.cls-41{fill:#dcdbdb;}.cls-42{fill:#eaeaea;}.cls-43{fill:#838943;}.cls-44{fill:#2a180f;}.cls-45{fill:#d49d42;}.cls-46{fill:#c29441;}.cls-47{fill:#d7d2c6;}.cls-48{fill:#edc873;}.cls-49{fill:#e8e4dd;}.cls-50{fill:#bdbbbc;}.cls-51{fill:#daa596;}.cls-52{fill:#e5c4bd;}.cls-54{stroke:#999;}.cls-55{fill:#d2c6cc;}.cls-56{fill:#d09486;}.cls-57{fill:#e2b3a8;}.cls-58{fill:#e9e7e4;}.cls-59{fill:#7d7d7d;}.cls-60{fill:#e7e7e4;}.cls-61{font-size:4.06px;}.cls-62{fill:#d2c8cd;}.cls-63{fill:#267265;}.cls-64{fill:#b4b9a3;}.cls-65{fill:#dce0c2;}.cls-66{fill:#3d897e;}.cls-67{fill:#f7f7f7;}.cls-68{fill:#6ca399;}.cls-69,.cls-73{font-size:3px;}.cls-70{fill:#ddb464;}.cls-71{fill:#ede6bc;}.cls-72{fill:#efedd5;}.cls-74{fill:#e5e5e5;}.cls-75{fill:#eeb2a1;}.cls-76{fill:#edcbc3;}.cls-77{fill:#8e2c36;}.cls-78{fill:#fef9e8;}.cls-79{fill:#f9f8f2;}.cls-80{font-size:4.04px;}.cls-81{fill:#eddfe3;}.cls-82{fill:#dbc8cc;}.cls-83{fill:#c24757;}</style></defs><title>wine</title><path class="cls-1" d="M920.23,1V30.71s.95,4.26-8.57,42.73c0,0-.48,1.56,0,12.75s-.21,57.38-.21,57.38,17.83,8.33,30.92,0V76.2a24.43,24.43,0,0,0-.5-5c-1.65-8.07-6.87-33.57-8.07-39.57L932.85,1S928.33-.95,920.23,1Z"/><path class="cls-2" d="M920.36.68A35.92,35.92,0,0,1,933,.68s.31,8.06.11,10.06a63.88,63.88,0,0,0-12.66,0Z"/><path class="cls-3" d="M923.82.23c-2.14.16-3.46.32-3.46.32V10.61h3.46Z"/><path class="cls-4" d="M928.63,30h3.09s5.36,35.86,7,45.55v66.57s-5.15,1.85-7.21,0S933.78,71,928.63,30Z"/><path class="cls-5" d="M911.57,95.2s23.12-3.16,31,1v34.63a43,43,0,0,1-31,0Z"/><polygon class="cls-2" points="933.68 29.95 920.36 29.95 920.36 10.51 933.19 10.51 933.68 29.95"/><rect class="cls-3" x="920.36" y="10.51" width="3.46" height="19.45"/><path class="cls-6" d="M920.36,10.51a35.1,35.1,0,0,1,12.83,0"/><path class="cls-6" d="M920.36,2.77a35.37,35.37,0,0,1,12.83,0"/><path class="cls-6" d="M933.19,6a39.59,39.59,0,0,0-8-.53"/><path class="cls-6" d="M920.44,8.21a23.57,23.57,0,0,1,8.25-.53"/><text class="cls-7" transform="translate(914.61 104.51)">RISELI<tspan class="cls-8" x="18.84" y="0">N</tspan><tspan class="cls-9" x="23.12" y="0">G</tspan></text><path class="cls-10" d="M218.61,79.24c-.27-16.79-13.76-50.53-13.76-50.53L200,29l-4.85-.29s-13.49,33.74-13.76,50.53-1,61.18-1,61.18.11,6.51,12.33,6.75c2.42.05,4.22.07,5.57.09.3,0,.83,0,1.72,0s1.42,0,1.72,0c1.35,0,3.15,0,5.57-.09,12.22-.24,12.33-6.75,12.33-6.75S218.89,96,218.61,79.24Z"/><path class="cls-11" d="M205.27,2.4h-9.81a2.33,2.33,0,0,0-2.39,2.27v1.7a2.33,2.33,0,0,0,2.39,2.27h-.9l-.42,23.25,12.21-.09V8.64h-1.08a2.33,2.33,0,0,0,2.38-2.27V4.67A2.33,2.33,0,0,0,205.27,2.4Z"/><path class="cls-12" d="M194.49,31.89h3.81v-29h-3a2.27,2.27,0,0,0-2.27,2.26V6.89a2.27,2.27,0,0,0,2.27,2.26h-.85Z"/><path class="cls-13" d="M214.6,140.07s-11.79.87-15.72.87c-3.51,0-14.06-.87-14.06-.87V86.41s10.54-.87,14.06-.86c3.94,0,15.72.86,15.72.86Z"/><path class="cls-14" d="M213.36,136.81s-9.18.93-14.48.93c-4.6,0-12.82-.93-12.82-.93V87.65s9.61-.51,12.82-.5c3.63,0,14.48.5,14.48.5Z"/><text class="cls-15" transform="translate(189.65 98.3)">Pinot Noir</text><circle class="cls-13" cx="199.71" cy="110.21" r="8.12"/><path class="cls-16" d="M289.12,136.24s-.21-60.25-.84-71S287.64,50.5,282,45s-4.43-15.17-4.43-15.17l0-15.39.3-1s.48-8.77-1-10.43c-1.25-1.42-5.26-1.31-6.37-1.25V1.7s-5.21-.43-6.66,1.23-1,10.43-1,10.43l.3,1,0,15.4s1.26,9.69-4.43,15.16-5.68,9.48-6.32,20.23-.84,71-.84,71-.81,8.06,5.86,9.88c6,1.64,18.87,1.64,25.92.08C290,144.62,289.12,136.24,289.12,136.24Z"/><path class="cls-17" d="M272.73,51.16a4.75,4.75,0,0,1,7.35,0c4,4,4.2,89.28,4.2,89.28s-3.78,2.31-7.35,1.47S272.73,51.16,272.73,51.16Z"/><path class="cls-18" d="M252.07,73.23a331.63,331.63,0,0,1,36.47,0l.44,38.19s-18.67,3.93-37.35,0Z"/><path class="cls-19" d="M252.07,74.79a353,353,0,0,1,36.47,0l.44,34.54s-18.67,4.07-37.35,0Z"/><text class="cls-20" transform="translate(255.65 89.1)">Caber<tspan class="cls-21" x="8.93" y="0">n</tspan><tspan class="cls-22" x="10.76" y="0">e</tspan><tspan x="12.24" y="0">t S</tspan><tspan class="cls-23" x="16.36" y="0">a</tspan><tspan x="18.25" y="0">u</tspan><tspan class="cls-24" x="19.81" y="0">v</tspan><tspan class="cls-25" x="21.53" y="0">i</tspan><tspan class="cls-26" x="22.16" y="0">g</tspan><tspan x="23.93" y="0">non</tspan></text><text class="cls-27" transform="translate(261.31 98.19)">N<tspan class="cls-28" x="1.78" y="0">A</tspan><tspan class="cls-29" x="3.73" y="0">P</tspan><tspan x="5.49" y="0">A </tspan><tspan class="cls-30" x="7.97" y="0">V</tspan><tspan class="cls-31" x="9.6" y="0">A</tspan><tspan x="11.61" y="0">LLEY</tspan></text><path class="cls-32" d="M362.73,56.12c-.17-9.25-10.05-19.73-10.05-19.73l-.42-5.73.42-5.26s-.51-13.5-.11-15.52a12.4,12.4,0,0,0-.48-5c-.09-.27,1.13-.53,0-1.68-.83-.83-4.5-1.09-6.45-1.17V2H344.4V2c-2,.08-5.63.34-6.45,1.17-1.14,1.15.08,1.41,0,1.68a12.16,12.16,0,0,0-.49,5c.4,2-.11,19.46-.11,19.46l.42,1.32-.42,5.73s-9.88,10.48-10.05,19.73,0,84.37,0,84.37a6,6,0,0,0,3.93,4.67c3,.93,9.26,1.66,13.09,2v.11l.7-.05.69.05v-.11c3.83-.34,10.09-1.07,13.1-2a6,6,0,0,0,3.92-4.67S362.91,65.36,362.73,56.12Z"/><path class="cls-17" d="M351.86,48.76s2.43-3.55,5.31,0,3,79.46,3,79.46-2.73,2.06-5.31,1.31S351.86,48.76,351.86,48.76Z"/><path class="cls-33" d="M330.84,66.57a229.43,229.43,0,0,1,28.93,0v52.06s-7.06,3.77-28.07,0Z"/><path class="cls-34" d="M330.84,66.75a71,71,0,0,1,10.18-.6v54s-3.47-.26-9.32-1.31Z"/><path class="cls-35" d="M335.59,90h.86l.36,1.3.12.51h0l.12-.51.36-1.3h.86v3.67h-.69V92.49c0-.42.07-1.31.11-1.71h0l-.28,1-.28.88h-.4l-.29-.88-.26-1h0c0,.4.11,1.29.11,1.71v1.13h-.68Z"/><path class="cls-35" d="M339.13,90h2.41v.7H340v.73h1.35v.7H340v.85h1.64v.69h-2.46Z"/><path class="cls-35" d="M342.35,90h1.29c.77,0,1.4.27,1.4,1.15s-.63,1.2-1.4,1.2h-.47v1.32h-.82Zm1.22,1.69c.43,0,.66-.19.66-.54s-.23-.49-.66-.49h-.4v1Zm.48-.09,1.16,2.07h-.92l-.8-1.54Z"/><path class="cls-35" d="M345.9,90h.82v3h1.61v.69H345.9Z"/><path class="cls-35" d="M348.86,91.77c0-1.23.6-1.88,1.46-1.88s1.46.65,1.46,1.88-.6,1.92-1.46,1.92S348.86,93,348.86,91.77Zm2.08,0c0-.76-.24-1.17-.62-1.17s-.62.41-.62,1.17.24,1.2.62,1.2S350.94,92.56,350.94,91.77Z"/><path class="cls-35" d="M353.25,90.65h-1.08V90h3v.7h-1.08v3h-.83Z"/><path class="cls-36" d="M436.17,71.73s-.07-14.87-2.49-17.59a122.87,122.87,0,0,1-7.21-10.2c-1.11-1.25-1.74-10-1.74-10H413.27s-.63,8.8-1.74,10a122.87,122.87,0,0,1-7.21,10.2c-2.42,2.72-2.49,17.59-2.49,17.59l0,69.5s-1.38,6,17,6h.24c18.39-.05,17-6,17-6Z"/><path class="cls-37" d="M425.28,7.81c-.17-.52-5.11-.68-6.28-.71h-.25c-1.17,0-6.11.19-6.28.71s-.69,6.09,0,6.58,1.47,14.63.3,21.3H425c-1.18-6.67-.4-20.81.29-21.3S425.48,8.4,425.28,7.81Z"/><path class="cls-38" d="M422.9,56.7s3.86-3,6.65,0,1.93,75.54,1.93,75.54-5.58,4.73-6.87,0S427.83,68.72,422.9,56.7Z"/><path class="cls-39" d="M401.83,71.73s19-.84,34.34,0l0,41.4s-17.81,4.83-34.32,0Z"/><path class="cls-40" d="M401.83,110.16s16.89,4.88,34.32,0V117s-20.28,4.38-34.28-.61Z"/><path class="cls-40" d="M401.83,110.16s16.89,4.88,34.32,0V117s-20.28,4.38-34.28-.61Z"/><path class="cls-35" d="M407.13,80.66l.38-.46a1.2,1.2,0,0,0,.78.31c.28,0,.41-.11.41-.25s-.18-.26-.45-.38l-.38-.16a.85.85,0,0,1-.62-.8,1,1,0,0,1,1.07-.87,1.41,1.41,0,0,1,1,.38l-.33.42a1.05,1.05,0,0,0-.68-.23c-.22,0-.36.09-.36.26s.19.24.47.35l.36.15a.82.82,0,0,1,.63.79c0,.49-.41.91-1.14.91A1.67,1.67,0,0,1,407.13,80.66Z"/><path class="cls-35" d="M409.87,80.41c0-.5.41-.75,1.46-.82,0-.2-.17-.32-.47-.32a1.48,1.48,0,0,0-.68.21l-.24-.43a2.1,2.1,0,0,1,1.05-.3.9.9,0,0,1,1,1V81h-.54l-.05-.25h0a1.45,1.45,0,0,1-.79.3A.67.67,0,0,1,409.87,80.41Zm1.46,0V80c-.65,0-.83.18-.83.37s.12.21.31.21A.85.85,0,0,0,411.33,80.36Z"/><path class="cls-35" d="M412.56,80.18V78.8h.66v1.29c0,.3.08.43.32.43a.49.49,0,0,0,.43-.26V78.8h.66V81h-.54l0-.32h0a1,1,0,0,1-.75.37C412.77,81.08,412.56,80.74,412.56,80.18Z"/><path class="cls-35" d="M415.11,78.8h.66l.35,1c.07.22.13.45.2.69h0c.07-.24.12-.47.2-.69l.35-1h.63L416.7,81H416Z"/><path class="cls-35" d="M418.9,79.32H418V78.8h1.55V81h-.66Zm-.13-1.27a.44.44,0,0,1,.87,0,.44.44,0,0,1-.87,0Z"/><path class="cls-35" d="M420.58,81.4a.5.5,0,0,1,.34-.44v0a.43.43,0,0,1-.22-.38.54.54,0,0,1,.26-.42h0a.7.7,0,0,1-.29-.58.84.84,0,0,1,.95-.8,1.44,1.44,0,0,1,.37,0h.9v.49h-.45a.48.48,0,0,1,.1.29c0,.51-.4.74-.92.74a1.13,1.13,0,0,1-.3,0,.18.18,0,0,0-.1.16c0,.12.11.17.38.17H422c.58,0,.9.16.9.56s-.51.8-1.33.8C421,82,420.58,81.8,420.58,81.4Zm1.7-.11c0-.15-.13-.18-.39-.18h-.28a1.53,1.53,0,0,1-.34,0c-.11.06-.16.13-.16.21s.22.26.57.26S422.28,81.44,422.28,81.29ZM422,79.55a.34.34,0,1,0-.67,0,.34.34,0,1,0,.67,0Z"/><path class="cls-35" d="M423.35,78.8h.54l.05.3h0a1.07,1.07,0,0,1,.77-.35c.5,0,.72.34.72.9V81h-.66V79.74c0-.3-.08-.43-.33-.43a.6.6,0,0,0-.44.23V81h-.67Z"/><path class="cls-35" d="M425.93,79.92a1.14,1.14,0,1,1,1.13,1.16A1.11,1.11,0,0,1,425.93,79.92Zm1.59,0c0-.39-.15-.64-.46-.64s-.45.25-.45.64.15.63.45.63S427.52,80.3,427.52,79.92Z"/><path class="cls-35" d="M428.73,78.8h.54l.05.3h0a1.09,1.09,0,0,1,.77-.35c.51,0,.73.34.73.9V81h-.66V79.74c0-.3-.09-.43-.33-.43a.6.6,0,0,0-.45.23V81h-.66Z"/><path class="cls-35" d="M412.61,83.48h1c.61,0,1.08.17,1.08.72a.65.65,0,0,1-.5.64h0a.66.66,0,0,1,.63.69c0,.6-.49.86-1.12.86h-1.07Zm.95,1.17c.32,0,.46-.13.46-.35s-.14-.31-.45-.31h-.3v.66Zm.06,1.24c.36,0,.54-.13.54-.4s-.17-.36-.54-.36h-.35v.76Z"/><path class="cls-35" d="M415.89,85.53V83.78h-.7v-.52h1.36v2.3a.33.33,0,0,0,.36.36,1,1,0,0,0,.35-.07l.15.49a2,2,0,0,1-.67.12C416.18,86.46,415.89,86.1,415.89,85.53Z"/><path class="cls-35" d="M417.93,85.79c0-.5.41-.76,1.46-.82,0-.2-.17-.32-.47-.32a1.51,1.51,0,0,0-.68.21l-.23-.44a2.17,2.17,0,0,1,1-.3.9.9,0,0,1,1,1V86.4h-.54l0-.25h0a1.34,1.34,0,0,1-.79.31A.67.67,0,0,1,417.93,85.79Zm1.46-.06v-.36c-.65,0-.83.17-.83.36s.12.22.31.22A.84.84,0,0,0,419.39,85.73Z"/><path class="cls-35" d="M420.67,84.18h.53l.05.29h0a1.07,1.07,0,0,1,.77-.35c.5,0,.72.35.72.91V86.4h-.66V85.11c0-.29-.08-.42-.32-.42a.6.6,0,0,0-.45.23V86.4h-.66Z"/><path class="cls-35" d="M423.33,85.29a1.29,1.29,0,0,1,2.12-.86l-.3.41a.79.79,0,0,0-.5-.18.6.6,0,0,0-.64.63.59.59,0,0,0,.62.63,1,1,0,0,0,.59-.21l.26.42a1.46,1.46,0,0,1-.91.33A1.14,1.14,0,0,1,423.33,85.29Z"/><path class="cls-41" d="M401.86,91.67s7.7.46,18.56,8.4-4.49,7.89-4.49,7.89l-14.1,2.2Z"/><path class="cls-42" d="M403.46,110.16s11-13.12,32.69-11.77v11.77S415.56,115.59,403.46,110.16Z"/><path class="cls-43" d="M417.38,35.66V7.12c-1.89.08-4.78.27-4.91.67-.2.59-.69,6.08,0,6.57s1.47,14.63.3,21.3Z"/><path class="cls-44" d="M508.36,139.08s.14-30.27,0-41.15-1.25-16.73-6.83-29.28-6.46-29.57-6.46-29.57h-11.7s-.88,17-6.46,29.57-6.7,18.41-6.84,29.28,0,41.15,0,41.15S467,144.9,485.55,146h7.33C511.43,144.9,508.36,139.08,508.36,139.08Z"/><path class="cls-45" d="M506.57,140.39s.12-30.27,0-41.15-1.1-16.73-5.94-29.29S495,40.39,495,40.39H484.85s-.76,17-5.61,29.56-5.82,18.41-5.94,29.29,0,41.15,0,41.15-2.66,5.82,13.45,6.88h6.37C509.23,146.21,506.57,140.39,506.57,140.39Z"/><path class="cls-46" d="M495.57,15.49l-.81-.66a4.25,4.25,0,0,0,0-2.05c-.26-.79-4.76-.93-5.63-.88s-5.37.09-5.64.88a4.4,4.4,0,0,0,0,2.05l-.8.66V18.2l.73.73s-.07,17.93-.29,21.74a41.39,41.39,0,0,0,6,.44,41.39,41.39,0,0,0,6-.44c-.22-3.81-.29-21.74-.29-21.74l.73-.73Z"/><path class="cls-47" d="M470.12,100.67s15.31-2.14,38.43,0V136.9s-11.29,5.45-38.43.56Z"/><path class="cls-48" d="M494.62,15.49l-.66-.66a5.29,5.29,0,0,0,0-2.05c-.22-.79-3.91-.93-4.62-.88s-4.41.09-4.62.88a5.29,5.29,0,0,0,0,2.05l-.66.66V18.2l.6.73s-.06,17.93-.24,21.74a27.73,27.73,0,0,0,9.84,0c-.18-3.81-.24-21.74-.24-21.74l.6-.73Z"/><path class="cls-49" d="M473.25,100.67s13.33-2.14,33.48,0V136.9s-10,6-33.59,1.07Z"/><path class="cls-35" d="M479.6,116.19a1.78,1.78,0,0,0,0,.26,2.79,2.79,0,0,0,0,.32h-.1a3.68,3.68,0,0,1-.92-.11,1.87,1.87,0,0,1-.69-.35,1.37,1.37,0,0,1-.34-.42,1.2,1.2,0,0,1-.12-.55,1.18,1.18,0,0,1,.12-.53,1.31,1.31,0,0,1,.34-.41,1.87,1.87,0,0,1,.69-.35,3.19,3.19,0,0,1,.89-.12h.09c0,.06,0,.14,0,.25s0,.21.05.33h-.1a2.35,2.35,0,0,0-.42,0,1.77,1.77,0,0,0-.44.11,1.17,1.17,0,0,0-.39.29.56.56,0,0,0-.15.39.63.63,0,0,0,.14.4,1,1,0,0,0,.4.29,1.34,1.34,0,0,0,.44.12,2.53,2.53,0,0,0,.43,0h.13Z"/><path class="cls-35" d="M482.05,116.73h-.64s0-.19,0-.4v-.9a.6.6,0,0,0-.07-.28.28.28,0,0,0-.22-.08.8.8,0,0,0-.23.05l-.28.13v1.48H480c0-.1,0-.3,0-.6v-1.64c0-.25,0-.51,0-.8h.64v1.12h0a2.54,2.54,0,0,1,.41-.18,1.18,1.18,0,0,1,.38-.07.6.6,0,0,1,.46.18.64.64,0,0,1,.17.47v.42c0,.11,0,.21,0,.28s0,.28,0,.45Z"/><path class="cls-35" d="M484.41,115.63v1.1l-.27,0-.51,0-.39,0a1.23,1.23,0,0,1-.38-.1.81.81,0,0,1-.3-.21.51.51,0,0,1-.1-.32.48.48,0,0,1,.11-.34.91.91,0,0,1,.36-.24,1.93,1.93,0,0,1,.41-.09,3.8,3.8,0,0,1,.43,0,.29.29,0,0,0-.06-.19.31.31,0,0,0-.18-.11l-.18,0h-.65l.06-.46h.39a2.35,2.35,0,0,1,.58.06,1,1,0,0,1,.4.2,1,1,0,0,1,.21.31A1.28,1.28,0,0,1,484.41,115.63Zm-.6.38v-.15c0-.06,0-.12,0-.19l-.21,0a1.07,1.07,0,0,0-.27.08.54.54,0,0,0-.16.1.29.29,0,0,0-.07.18.26.26,0,0,0,.06.18.57.57,0,0,0,.16.11.76.76,0,0,0,.16,0l.2,0h.13v-.13A1.85,1.85,0,0,0,483.81,116Z"/><path class="cls-35" d="M486.54,115.09a2.87,2.87,0,0,0-.38.13l-.55.23v1.28H485v-2.12h.62v.31h0a4.16,4.16,0,0,1,.42-.23,2.29,2.29,0,0,1,.36-.14Z"/><path class="cls-35" d="M488.68,116.75h-.3a4.45,4.45,0,0,1-.71,0,1.42,1.42,0,0,1-.48-.14,1,1,0,0,1-.43-.36.91.91,0,0,1-.15-.52.93.93,0,0,1,.16-.54,1,1,0,0,1,.49-.37,1.52,1.52,0,0,1,.38-.11,2,2,0,0,1,.41,0v-.93h.63v3.06Zm-.6-1.31v-.34l-.28,0a.9.9,0,0,0-.23.08.48.48,0,0,0-.24.2.57.57,0,0,0-.08.32.52.52,0,0,0,.28.48.85.85,0,0,0,.24.09,1.12,1.12,0,0,0,.27,0h0v-.88Z"/><path class="cls-35" d="M491.39,115.68a1.06,1.06,0,0,1-.1.46,1.1,1.1,0,0,1-.27.38.9.9,0,0,1-.34.2,1.29,1.29,0,0,1-.84,0,1,1,0,0,1-.62-.58,1.24,1.24,0,0,1-.1-.47,1,1,0,0,1,.09-.44.9.9,0,0,1,.25-.37,1,1,0,0,1,.36-.22,1,1,0,0,1,.43-.08,1.23,1.23,0,0,1,.44.07,1,1,0,0,1,.35.22,1,1,0,0,1,.26.37A1.11,1.11,0,0,1,491.39,115.68Zm-.64,0a1,1,0,0,0,0-.29.49.49,0,0,0-.15-.24.34.34,0,0,0-.14-.09.45.45,0,0,0-.16,0,.48.48,0,0,0-.18,0,.48.48,0,0,0-.15.11.67.67,0,0,0-.13.22,1.07,1.07,0,0,0,0,.58.51.51,0,0,0,.15.23.42.42,0,0,0,.14.09.5.5,0,0,0,.34,0,.56.56,0,0,0,.15-.1.73.73,0,0,0,.13-.23A.86.86,0,0,0,490.75,115.68Z"/><path class="cls-35" d="M493.88,116.73h-.63v-1.3a.46.46,0,0,0-.07-.27.23.23,0,0,0-.21-.09.92.92,0,0,0-.25.05l-.26.13v1.48h-.63v-2.12h.62v.2h0a2.65,2.65,0,0,1,.42-.18,1.19,1.19,0,0,1,.39-.07.58.58,0,0,1,.45.18.61.61,0,0,1,.17.47v1.52Z"/><path class="cls-35" d="M496.52,116.73h-.63v-1.3a.46.46,0,0,0-.07-.27.23.23,0,0,0-.21-.09.92.92,0,0,0-.25.05,2.1,2.1,0,0,0-.26.13v1.48h-.63v-2.12h.62v.2h0a2.65,2.65,0,0,1,.42-.18,1.24,1.24,0,0,1,.39-.07.58.58,0,0,1,.45.18.61.61,0,0,1,.17.47v1.52Z"/><path class="cls-35" d="M498.88,115.63v1.1l-.27,0-.5,0-.4,0a1.17,1.17,0,0,1-.37-.1.68.68,0,0,1-.3-.21.52.52,0,0,1-.11-.32.53.53,0,0,1,.11-.34.88.88,0,0,1,.37-.24,1.7,1.7,0,0,1,.4-.09,4,4,0,0,1,.44,0,.47.47,0,0,0-.06-.19.4.4,0,0,0-.18-.11l-.19,0h-.65l.06-.46h.39a2.49,2.49,0,0,1,.59.06,1,1,0,0,1,.39.2.72.72,0,0,1,.21.31A1.28,1.28,0,0,1,498.88,115.63Zm-.6.38v-.34l-.22,0a1.07,1.07,0,0,0-.27.08.4.4,0,0,0-.15.1.24.24,0,0,0-.07.18.26.26,0,0,0,.06.18.38.38,0,0,0,.16.11.65.65,0,0,0,.16,0l.19,0h.14V116Z"/><path class="cls-35" d="M501.5,114.73l-.81,1.87-.47,1.08-.59-.15.38-.84-.27-.66-.56-1.29.64-.17c.11.31.22.61.34.88l.19.5h0c0-.07.08-.23.18-.47s.22-.55.35-.91Z"/><path class="cls-50" d="M570.35,6.72a30.75,30.75,0,0,0-13.32,0s-1,10.25-.54,10.52a1.51,1.51,0,0,1,.31,1.8c-.27.76-.07,15.75-.07,15.75s4.06-.15,6.26-.11c0,.08,0,.13.06.11a2.32,2.32,0,0,1,1.28,0s0,0,.06-.11c2.2,0,6.26.11,6.26.11s.2-15-.07-15.75a1.51,1.51,0,0,1,.31-1.8C571.34,17,570.35,6.72,570.35,6.72Z"/><path class="cls-51" d="M578.29,65.25c-7.22-9.94-7.7-30.47-7.7-30.47a40.17,40.17,0,0,0-6.75-.74h-.3a40.17,40.17,0,0,0-6.75.74s-.48,20.53-7.7,30.47-3.68,74.87-3.68,74.87-.81,6.42,7.53,6.74l10.6.4h.3l10.6-.4c8.34-.32,7.53-6.74,7.53-6.74S585.5,75.19,578.29,65.25Z"/><path class="cls-52" d="M575.72,65.25c-5.26-9.94-5.61-30.47-5.61-30.47a21.83,21.83,0,0,0-4.93-.74H565a21.75,21.75,0,0,0-4.92.74s-.35,20.53-5.62,30.47-2.69,74.87-2.69,74.87-.59,6.42,5.5,6.74l7.73.4h.23l7.74-.4c6.08-.32,5.5-6.74,5.5-6.74S581,75.19,575.72,65.25Z"/><path class="cls-50" d="M569.53,6.72a14.7,14.7,0,0,0-9.15,0S559.7,17,560,17.24a2,2,0,0,1,.21,1.8c-.19.76-.05,15.75-.05,15.75s2.79-.15,4.3-.11c0,.08,0,.13,0,.11a1.17,1.17,0,0,1,.44-.09,1.12,1.12,0,0,1,.44.09s0,0,0-.11c1.51,0,4.3.11,4.3.11s.15-15-.05-15.75a2,2,0,0,1,.22-1.8C570.21,17,569.53,6.72,569.53,6.72Z"/><path class="cls-53" d="M547.43,91.67a214.05,214.05,0,0,1,33.44,0v45.71s-21.38,1.91-33.44-.63C547.43,136.75,546.37,106.49,547.43,91.67Z"/><path class="cls-54" d="M548.71,93a200.34,200.34,0,0,1,31.46,0v43s-20.11,1.79-31.46-.59C548.71,135.44,547.72,107,548.71,93Z"/><path class="cls-35" d="M555.41,107.24l-.75.29q-.09-.14-.36-.48c-.18-.22-.45-.58-.82-1.06v0a.73.73,0,0,0,.22-.09.71.71,0,0,0,.22-.15.62.62,0,0,0,.14-.19.67.67,0,0,0,0-.26A.5.5,0,0,0,554,105a.49.49,0,0,0-.22-.18.59.59,0,0,0-.23,0l-.23,0h-.14c0,.2,0,.4,0,.61v1.43c0,.32,0,.55,0,.69h-.82c0-.13,0-.32,0-.57V105.2c0-.25,0-.6,0-1h.72l.64,0a2.1,2.1,0,0,1,.51.11,1,1,0,0,1,.51.33.86.86,0,0,1,0,1,1.41,1.41,0,0,1-.36.34v0l.55.65A5.17,5.17,0,0,1,555.41,107.24Z"/><path class="cls-35" d="M558.25,106.2a1.45,1.45,0,0,1-.1.55,1.26,1.26,0,0,1-.33.46,1.14,1.14,0,0,1-.41.24,1.59,1.59,0,0,1-.5.08,1.64,1.64,0,0,1-.5-.08,1.06,1.06,0,0,1-.41-.24,1.25,1.25,0,0,1-.33-.45,1.51,1.51,0,0,1-.11-.56,1.29,1.29,0,0,1,.1-.53,1.15,1.15,0,0,1,.3-.44,1.29,1.29,0,0,1,.42-.26,1.47,1.47,0,0,1,1,0,1.13,1.13,0,0,1,.43.26,1.19,1.19,0,0,1,.3.44A1.33,1.33,0,0,1,558.25,106.2Zm-.75,0a1.48,1.48,0,0,0,0-.35.78.78,0,0,0-.17-.28.45.45,0,0,0-.17-.11.64.64,0,0,0-.2,0,.66.66,0,0,0-.21,0,.68.68,0,0,0-.18.13.7.7,0,0,0-.15.27,1,1,0,0,0,0,.33,1,1,0,0,0,0,.35.53.53,0,0,0,.18.28.46.46,0,0,0,.16.11.64.64,0,0,0,.2,0,.52.52,0,0,0,.21,0,.5.5,0,0,0,.17-.11.92.92,0,0,0,.16-.27A1.27,1.27,0,0,0,557.5,106.21Z"/><path class="cls-35" d="M560.54,106.7a.53.53,0,0,1-.12.35.84.84,0,0,1-.28.25,1.59,1.59,0,0,1-.45.14,2.32,2.32,0,0,1-.53,0h-.52l-.06-.54h.66a1.08,1.08,0,0,0,.19,0,.33.33,0,0,0,.18-.1.19.19,0,0,0,0-.13.16.16,0,0,0,0-.11.73.73,0,0,0-.15-.11l-.22-.11-.24-.12a.67.67,0,0,1-.25-.25.56.56,0,0,1-.09-.31.58.58,0,0,1,.11-.34.85.85,0,0,1,.32-.26,1.29,1.29,0,0,1,.42-.12,3.73,3.73,0,0,1,.46,0h.45l.07.54h-.6l-.17,0a.37.37,0,0,0-.14.08.17.17,0,0,0,0,.11.21.21,0,0,0,.05.13.74.74,0,0,0,.16.1l.23.11.21.11a.76.76,0,0,1,.26.24A.57.57,0,0,1,560.54,106.7Z"/><path class="cls-35" d="M563.32,106.2H561.6a.63.63,0,0,0,.11.35.7.7,0,0,0,.32.26,1.19,1.19,0,0,0,.32.1,2.05,2.05,0,0,0,.37,0h.44l-.08.54h-.45a3,3,0,0,1-.77-.09,1.54,1.54,0,0,1-.57-.29,1.23,1.23,0,0,1-.31-.4,1.07,1.07,0,0,1-.13-.53,1.36,1.36,0,0,1,.09-.51,1.31,1.31,0,0,1,.29-.43,1,1,0,0,1,.41-.26,1.27,1.27,0,0,1,.5-.1,1.42,1.42,0,0,1,.48.08.86.86,0,0,1,.36.23,1.07,1.07,0,0,1,.26.42A2.13,2.13,0,0,1,563.32,106.2Zm-.71-.33a.76.76,0,0,0-.15-.39.45.45,0,0,0-.35-.14.52.52,0,0,0-.36.14.75.75,0,0,0-.18.39Z"/><path class="cls-35" d="M567.85,106.49a.81.81,0,0,1-.17.49,1.12,1.12,0,0,1-.49.33,3,3,0,0,1-.59.13c-.23,0-.47,0-.74,0h-.46l-.35,0c0-.27,0-.54,0-.82v-1.94c0-.34,0-.52,0-.54h.77l.67,0a3.3,3.3,0,0,1,.49.09,1,1,0,0,1,.43.26.63.63,0,0,1,.16.44.73.73,0,0,1-.13.43.8.8,0,0,1-.37.28v0a1.07,1.07,0,0,1,.27.07.68.68,0,0,1,.23.14.66.66,0,0,1,.21.26A.75.75,0,0,1,567.85,106.49Zm-.84-.1a.38.38,0,0,0,0-.19.61.61,0,0,0-.12-.16.76.76,0,0,0-.18-.09.67.67,0,0,0-.24,0h-.24l-.07-.32a1,1,0,0,0,.43-.12.54.54,0,0,0,.14-.16.48.48,0,0,0,0-.22.36.36,0,0,0-.06-.2.33.33,0,0,0-.16-.15.59.59,0,0,0-.2-.06,1,1,0,0,0-.25,0h-.23c0,.17,0,.35,0,.56v1.67h.27a2.23,2.23,0,0,0,.37,0,.66.66,0,0,0,.3-.09.46.46,0,0,0,.18-.16A.48.48,0,0,0,567,106.39Z"/><path class="cls-35" d="M569.19,107.46h-.75v-3.62h.75v3.62Z"/><path class="cls-35" d="M572.19,106.2h-1.71a.62.62,0,0,0,.1.35.7.7,0,0,0,.32.26,1.19,1.19,0,0,0,.32.1,2.05,2.05,0,0,0,.37,0H572l-.07.54h-.46a2.88,2.88,0,0,1-.76-.09,1.4,1.4,0,0,1-.57-.29,1.13,1.13,0,0,1-.32-.4,1.18,1.18,0,0,1-.12-.53,1.6,1.6,0,0,1,.08-.51,1.31,1.31,0,0,1,.29-.43,1,1,0,0,1,.42-.26,1.19,1.19,0,0,1,.49-.1,1.42,1.42,0,0,1,.48.08.86.86,0,0,1,.36.23,1,1,0,0,1,.26.42A2.13,2.13,0,0,1,572.19,106.2Zm-.71-.33a.62.62,0,0,0-.15-.39.45.45,0,0,0-.35-.14.52.52,0,0,0-.36.14.75.75,0,0,0-.18.39Z"/><path class="cls-35" d="M575.14,107.46h-.76s0-.17,0-.37v-.83a3,3,0,0,0,0-.34.56.56,0,0,0-.07-.33.3.3,0,0,0-.26-.11.93.93,0,0,0-.29.07,1.87,1.87,0,0,0-.32.15v.71c0,.18,0,.4,0,.64v.41h-.76v-.34c0-.2,0-.48,0-.85v-.65c0-.22,0-.44,0-.68h.75v.23h0a2.71,2.71,0,0,1,.49-.22,1.49,1.49,0,0,1,.47-.09.73.73,0,0,1,.54.21.84.84,0,0,1,.2.57v.5c0,.14,0,.25,0,.34s0,.34,0,.56Z"/><path class="cls-35" d="M578.11,107.48h-.37a6.08,6.08,0,0,1-.84,0,1.9,1.9,0,0,1-.57-.17,1.24,1.24,0,0,1-.52-.43,1.06,1.06,0,0,1-.17-.61,1.13,1.13,0,0,1,.19-.65,1.2,1.2,0,0,1,.58-.44,2.06,2.06,0,0,1,.46-.14,2.72,2.72,0,0,1,.49,0v-1.11h.76s0,.26,0,.63v2.3C578.11,107.06,578.11,107.3,578.11,107.48Zm-.72-1.55v-.41l-.33,0a.85.85,0,0,0-.28.1.55.55,0,0,0-.28.24.67.67,0,0,0-.1.38.63.63,0,0,0,.08.34.7.7,0,0,0,.25.23.86.86,0,0,0,.28.11,1.84,1.84,0,0,0,.33,0h0s0-.11,0-.29Z"/><circle class="cls-55" cx="566.27" cy="118.27" r="6.95"/><path class="cls-56" d="M650.73,66.73c-.17-16.48-10.3-22.32-10.3-22.32s.08-2.33.18-5.82H627.89c.1,3.49.18,5.82.18,5.82s-10.13,5.84-10.3,22.32,0,75,0,75,.78,5.67,8.2,5.51a78.39,78.39,0,0,1,8.28,0,78.39,78.39,0,0,1,8.28,0c7.42.16,8.2-5.51,8.2-5.51S650.9,83.21,650.73,66.73Z"/><path class="cls-57" d="M648,66.73c-.14-16.48-8.21-22.32-8.21-22.32s.07-2.33.14-5.82H629.83c.08,3.49.14,5.82.14,5.82s-8.07,5.84-8.2,22.32,0,75,0,75,.62,5.67,6.53,5.51a49.9,49.9,0,0,1,6.6,0,49.62,49.62,0,0,1,6.59,0c5.92.16,6.54-5.51,6.54-5.51S648.17,83.21,648,66.73Z"/><path class="cls-58" d="M634.19,40.53v-.17C634,40.41,634.19,40.53,634.19,40.53Z"/><path class="cls-58" d="M640.85,3.54c-1.21-.61-5.73-.85-6.54-.89h-.12c-.81,0-5.33.28-6.54.89V14.17l.89.68-.89.52V40a21.7,21.7,0,0,0,5.47.45,5.13,5.13,0,0,1,1.07-.11h.12a5.13,5.13,0,0,1,1.07.11,21.7,21.7,0,0,0,5.47-.45V15.37l-.89-.52.89-.68Z"/><path class="cls-58" d="M634.31,40.36v.17S634.49,40.41,634.31,40.36Z"/><path class="cls-19" d="M634.4,40.53v-.17C634.27,40.41,634.4,40.53,634.4,40.53Z"/><path class="cls-19" d="M639.23,3.54c-.88-.61-4.15-.85-4.74-.89h-.09c-.59,0-3.87.28-4.75.89V14.17l.64.68-.64.52V40a11.59,11.59,0,0,0,4,.45,2.75,2.75,0,0,1,.78-.11h.09a2.69,2.69,0,0,1,.77.11,11.55,11.55,0,0,0,4-.45V15.37l-.64-.52.64-.68Z"/><path class="cls-19" d="M634.49,40.36v.17S634.62,40.41,634.49,40.36Z"/><path class="cls-59" d="M627.65,20.82s3.47-1.11,13.2,0v4s-9.61-.91-13.2,0Z"/><path class="cls-60" d="M620.51,66.77h28.91v49.05s-16.95,2.39-28.91,0Z"/><text class="cls-61" transform="translate(624.74 97.42)">Rose Blend<tspan x="5.2" y="4.87">Sweet</tspan></text><circle class="cls-62" cx="636.39" cy="83.69" r="6.38"/><path class="cls-63" d="M852.35,37c-1.6.07-7.39.48-7.39.48.54-2.81,1.47-26.46,1.47-26.46l-.53-1V6.9l.4-.94V4.52c2.08-1.11,5.7-1.06,6.21-1s4.14-.06,6.22,1V6l.4.94V10l-.53,1s.93,23.65,1.47,26.46c0,0-2.39-.34-7-.48"/><path class="cls-64" d="M869.7,68c-.12-12.68-1.72-18.59-6.27-22.4s-3.82-8.37-3.82-8.37a45.35,45.35,0,0,0-6.68-.71v0l-.42,0-.41,0v0a45.22,45.22,0,0,0-6.68.71s.74,4.55-3.82,8.37-6.15,9.72-6.27,22.4-.74,70.27-.74,70.27.49,7,4.06,7.88c3,.71,10.88,1,13.45,1.08v0h.83v0c2.57-.08,10.48-.37,13.45-1.08,3.57-.87,4.06-7.88,4.06-7.88S869.82,80.69,869.7,68Z"/><path class="cls-65" d="M867,68c-.1-12.68-1.38-18.59-5-22.4a11,11,0,0,1-3.06-8.37,29.43,29.43,0,0,0-5.37-.71v0l-.33,0-.33,0v0a29.45,29.45,0,0,0-5.36.71,11,11,0,0,1-3.06,8.37c-3.66,3.81-4.94,9.72-5,22.4s-.59,70.27-.59,70.27.39,7,3.26,7.88c2.38.71,8.73,1,10.79,1.08v0h.66v0c2.07-.08,8.42-.37,10.8-1.08,2.87-.87,3.26-7.88,3.26-7.88S867.06,80.69,867,68Z"/><path class="cls-66" d="M853.37,36.49c-1,.07-4.75.47-4.75.47.34-2.76.94-26.09.94-26.09l-.34-1v-3l.25-.92V4.5a8.28,8.28,0,0,1,8,0V5.93l.26.92v3l-.35,1s.6,23.33,1,26.09a29.19,29.19,0,0,0-4.51-.47"/><path class="cls-66" d="M868.8,133a46.84,46.84,0,0,1-30,0V90.9a71.73,71.73,0,0,1,30,0C868.26,101.47,869.2,122.64,868.8,133Z"/><path class="cls-67" d="M867.88,131.74a49.53,49.53,0,0,1-28.18,0V96.82a75.91,75.91,0,0,1,28.18,0C867.38,105.59,868.26,123.15,867.88,131.74Z"/><circle class="cls-68" cx="849.43" cy="114.54" r="3.74"/><circle class="cls-66" cx="857.94" cy="119.72" r="3.74"/><circle class="cls-66" cx="857.94" cy="106.45" r="5.42"/><text class="cls-69" transform="translate(847.81 93.71)">Moscato</text><path class="cls-70" d="M778.82,37c-1.6.07-7.39.48-7.39.48C772,34.63,772.9,11,772.9,11l-.53-1V6.9l.39-.94V4.52c2.09-1.11,5.71-1.06,6.22-1s4.14-.06,6.22,1V6l.4.94V10l-.54,1s.94,23.65,1.47,26.46c0,0-2.38-.34-7-.48"/><path class="cls-71" d="M796.17,68c-.12-12.68-1.72-18.59-6.28-22.4s-3.81-8.37-3.81-8.37a45.34,45.34,0,0,0-6.69-.71v0l-.41,0-.41,0v0a45.08,45.08,0,0,0-6.68.71s.73,4.55-3.82,8.37-6.15,9.72-6.28,22.4-.73,70.27-.73,70.27.49,7,4.06,7.88c3,.71,10.88,1,13.45,1.08v0h.82v0c2.58-.08,10.49-.37,13.46-1.08,3.57-.87,4.06-7.88,4.06-7.88S796.29,80.69,796.17,68Z"/><path class="cls-72" d="M793.43,68c-.1-12.68-1.39-18.59-5-22.4a10.93,10.93,0,0,1-3.06-8.37,29.43,29.43,0,0,0-5.37-.71v0l-.33,0-.33,0v0a29.45,29.45,0,0,0-5.36.71,11,11,0,0,1-3.06,8.37c-3.66,3.81-4.94,9.72-5,22.4s-.59,70.27-.59,70.27.39,7,3.26,7.88c2.38.71,8.73,1,10.79,1.08v0H780v0c2.07-.08,8.42-.37,10.8-1.08,2.86-.87,3.26-7.88,3.26-7.88S793.53,80.69,793.43,68Z"/><path class="cls-48" d="M779.83,36.49c-1,.07-4.75.47-4.75.47.35-2.76.95-26.09.95-26.09l-.34-1v-3l.25-.92V4.5a8.28,8.28,0,0,1,8,0V5.93l.25.92v3l-.34,1s.6,23.33.95,26.09a29.24,29.24,0,0,0-4.52-.47"/><path class="cls-48" d="M795.26,133a46.82,46.82,0,0,1-30,0V90.9a71.69,71.69,0,0,1,30,0C794.73,101.47,795.66,122.64,795.26,133Z"/><path class="cls-67" d="M794.35,131.51a44.72,44.72,0,0,1-28.18,0V92.71a68.6,68.6,0,0,1,28.18,0C793.84,102.45,794.73,122,794.35,131.51Z"/><text class="cls-73" transform="translate(771.22 100.74)">Pinot Grigio</text><circle class="cls-74" cx="781.03" cy="115.76" r="8.96"/><path class="cls-75" d="M1009.56,41.05c-2.8-2.9-2.8-12.19-2.8-12.19H993.24s0,9.29-2.8,12.19-9,7.26-8.81,27.09,0,73.92,0,73.92.39,4.3,6,4.93a73.7,73.7,0,0,0,12.37,0,73.7,73.7,0,0,0,12.37,0c5.61-.63,6-4.93,6-4.93s-.2-54.08,0-73.92S1012.37,44,1009.56,41.05Z"/><path class="cls-76" d="M1007.77,41.05c-2-2.9-2-12.19-2-12.19H996s0,9.29-2,12.19-6.48,7.26-6.35,27.09,0,73.92,0,73.92.28,4.3,4.33,4.93a1323.15,1323.15,0,0,0,17.82,0c4-.63,4.32-4.93,4.32-4.93s-.14-54.08,0-73.92S1009.79,44,1007.77,41.05Z"/><path class="cls-77" d="M1007,9.24V3.14H992.84v6.1s-.52.65.93.55l-.93,22.9a35.17,35.17,0,0,1,14.16,0l-.93-22.9C1007.52,9.89,1007,9.24,1007,9.24Z"/><path class="cls-78" d="M981.63,68.14s23.86-2.26,36.74,0v43.22a135.44,135.44,0,0,1-36.66,0Z"/><path class="cls-79" d="M984.85,68.14s21.77-2.26,33.52,0v43.22a113,113,0,0,1-33.46,0Z"/><text class="cls-80" transform="translate(984.16 76.35)">White Zinfandel</text><path class="cls-81" d="M1018.31,87.18s-21.88,4.21-36.07,14.61l-.55,5.77s13.6,4.2,36.58.86Z"/><path class="cls-82" d="M981.66,83.89s21.88,4.83,36.07,16.75l.56,6.61s-13.61,4.81-36.59,1Z"/><path class="cls-83" d="M981.7,108.23s26.5,1.61,36.59-1v8.13a104.5,104.5,0,0,1-36.66.37Z"/><path class="cls-83" d="M996.22,103.51a102.9,102.9,0,0,0,12,0v18.73a30.47,30.47,0,0,1-12,0Z"/><path class="cls-32" d="M723.65,56.12c-.17-9.25-10-19.73-10-19.73l-.42-5.73.42-5.26s-.51-13.5-.11-15.52a12.16,12.16,0,0,0-.49-5c-.08-.27,1.14-.53,0-1.68-.82-.83-4.49-1.09-6.45-1.17V2h-1.24V2c-1.95.08-5.62.34-6.45,1.17-1.13,1.15.09,1.41,0,1.68a12.22,12.22,0,0,0-.48,5c.39,2-.11,19.46-.11,19.46l.42,1.32-.42,5.73s-9.88,10.48-10,19.73,0,84.37,0,84.37a6,6,0,0,0,3.92,4.67c3,.93,9.27,1.66,13.1,2v.11l.69-.05.7.05v-.11c3.83-.34,10.09-1.07,13.09-2a6,6,0,0,0,3.93-4.67S723.82,65.36,723.65,56.12Z"/><path class="cls-17" d="M712.78,48.76s2.42-3.55,5.3,0,3,79.46,3,79.46-2.72,2.06-5.3,1.31S712.78,48.76,712.78,48.76Z"/><path class="cls-33" d="M691.76,66.57a229.29,229.29,0,0,1,28.92,0v52.06s-7.06,3.77-28.07,0Z"/><path class="cls-34" d="M691.76,66.75a71,71,0,0,1,10.18-.6v54s-3.46-.26-9.32-1.31Z"/><path class="cls-35" d="M696.51,90h.86l.35,1.3.13.51h0l.12-.51.36-1.3h.86v3.67h-.7V92.49c0-.42.07-1.31.11-1.71h0l-.28,1-.29.88h-.39l-.29-.88-.26-1h0c0,.4.11,1.29.11,1.71v1.13h-.68Z"/><path class="cls-35" d="M700.71,90h1l1.13,3.67H702l-.47-1.86c-.09-.36-.2-.79-.28-1.18h0c-.09.39-.19.82-.28,1.18l-.47,1.86h-.84Zm-.38,2.15h1.73v.65h-1.73Z"/><path class="cls-35" d="M703.47,90h.82v3h1.61v.69h-2.43Z"/><path class="cls-35" d="M706.63,90h1.22c.76,0,1.33.21,1.33.91a.8.8,0,0,1-.62.79v0a.82.82,0,0,1,.79.86c0,.75-.6,1.08-1.39,1.08h-1.33Zm1.18,1.48c.4,0,.57-.17.57-.45s-.18-.38-.56-.38h-.37v.83Zm.08,1.55c.45,0,.66-.17.66-.5s-.21-.46-.66-.46h-.44v1Z"/><path class="cls-35" d="M710.08,90h2.4v.7H710.9v.73h1.35v.7H710.9v.85h1.64v.69h-2.46Z"/><path class="cls-35" d="M713.21,91.81a1.73,1.73,0,0,1,1.73-1.92,1.59,1.59,0,0,1,1.09.46l-.45.51a.91.91,0,0,0-.64-.26c-.51,0-.89.44-.89,1.18S714.43,93,715,93a.89.89,0,0,0,.65-.32l.45.5a1.49,1.49,0,0,1-1.19.54A1.69,1.69,0,0,1,713.21,91.81Z"/></svg>