<svg xmlns="http://www.w3.org/2000/svg" viewBox="0 0 37.64 145.62"><defs><style>.cls-1{fill:#151515;}.cls-2{fill:#2d2d2d;}.cls-3{fill:#e3e3e1;}.cls-4{fill:#f4f4f4;}.cls-10,.cls-11,.cls-12,.cls-13,.cls-14,.cls-15,.cls-16,.cls-17,.cls-5,.cls-6,.cls-7,.cls-8,.cls-9{isolation:isolate;}.cls-10,.cls-11,.cls-12,.cls-6,.cls-7,.cls-8,.cls-9{font-size:3.4px;}.cls-10,.cls-11,.cls-12,.cls-13,.cls-14,.cls-15,.cls-16,.cls-17,.cls-6,.cls-7,.cls-8,.cls-9{fill:#221f20;font-family:Noteworthy-Bold, Noteworthy;font-weight:700;}.cls-7{letter-spacing:0.01em;}.cls-8{letter-spacing:-0.04em;}.cls-9{letter-spacing:0.02em;}.cls-10{letter-spacing:0.02em;}.cls-11{letter-spacing:-0.02em;}.cls-12{letter-spacing:0.01em;}.cls-13,.cls-14,.cls-15,.cls-16,.cls-17{font-size:2.56px;}.cls-14{letter-spacing:0.01em;}.cls-15{letter-spacing:-0.01em;}.cls-16{letter-spacing:-0.05em;}.cls-17{letter-spacing:0.03em;}</style></defs><title>Asset 3</title><g id="Layer_2" data-name="Layer 2"><g id="Layer_1-2" data-name="Layer 1"><path class="cls-1" d="M37.6,134.59s-.21-60.25-.84-71-.64-14.74-6.28-20.24-4.43-15.17-4.43-15.17V12.79l.3-1s.48-8.77-1-10.43C24.1-.06,20.09.05,19,.11V.05s-5.21-.43-6.66,1.23-1,10.43-1,10.43l.3,1v15.4s1.26,9.69-4.43,15.16S1.51,52.75.87,63.5s-.84,71-.84,71-.81,8.06,5.86,9.88c6,1.64,18.87,1.64,25.92.08C38.48,143,37.6,134.59,37.6,134.59Z"/><path class="cls-2" d="M21.21,49.51a4.76,4.76,0,0,1,6.69-.67,5.22,5.22,0,0,1,.66.67c4,4,4.2,89.28,4.2,89.28s-3.78,2.31-7.35,1.47S21.21,49.51,21.21,49.51Z"/><path class="cls-3" d="M.55,71.58a331.11,331.11,0,0,1,36.47,0l.44,38.19s-18.67,3.93-37.35,0Z"/><path class="cls-4" d="M.55,73.14a352.1,352.1,0,0,1,36.47,0l.44,34.54s-18.67,4.07-37.35,0Z"/><g class="cls-5"><text class="cls-6" transform="translate(4.13 87.45)">Caber</text><text class="cls-7" transform="translate(13.06 87.45)">n</text><text class="cls-8" transform="translate(14.89 87.45)">e</text><text class="cls-6" transform="translate(16.37 87.45)">t S</text><text class="cls-9" transform="translate(20.49 87.45)">a</text><text class="cls-6" transform="translate(22.38 87.45)">u</text><text class="cls-10" transform="translate(23.94 87.45)">v</text><text class="cls-11" transform="translate(25.66 87.45)">i</text><text class="cls-12" transform="translate(26.29 87.45)">g</text><text class="cls-6" transform="translate(28.06 87.45)">non</text></g><g class="cls-5"><text class="cls-13" transform="translate(9.79 96.54)">N</text><text class="cls-14" transform="translate(11.57 96.54)">A</text><text class="cls-15" transform="translate(13.52 96.54)">P</text><text class="cls-13" transform="translate(15.28 96.54)">A </text><text class="cls-16" transform="translate(17.76 96.54)">V</text><text class="cls-17" transform="translate(19.39 96.54)">A</text><text class="cls-13" transform="translate(21.4 96.54)">LLEY</text></g></g></g></svg>