<svg xmlns="http://www.w3.org/2000/svg" viewBox="0 0 38.67 135.38"><defs><style>.cls-1{fill:#2a180f;}.cls-2{fill:#d49d42;}.cls-3{fill:#c29441;}.cls-4{fill:#d7d2c6;}.cls-5{fill:#edc873;}.cls-6{fill:#e8e4dd;}.cls-7{fill:#221f20;}</style></defs><title>Asset 6</title><g id="Layer_2" data-name="Layer 2"><g id="Layer_1-2" data-name="Layer 1"><path class="cls-1" d="M38.48,127.19s.14-30.27,0-41.15-1.25-16.73-6.83-29.28-6.46-29.57-6.46-29.57H13.49s-.88,17-6.46,29.57S.33,75.17.19,86s0,41.15,0,41.15-3.07,5.82,15.48,6.92H23C41.55,133,38.48,127.19,38.48,127.19Z"/><path class="cls-2" d="M36.69,128.5s.12-30.27,0-41.15-1.1-16.73-5.94-29.29S25.12,28.5,25.12,28.5H15s-.76,17-5.61,29.56S3.54,76.47,3.42,87.35s0,41.15,0,41.15-2.66,5.82,13.45,6.88h6.37C39.35,134.32,36.69,128.5,36.69,128.5Z"/><path class="cls-3" d="M25.69,3.6l-.81-.66a4.18,4.18,0,0,0,0-2C24.62.1,20.12,0,19.25,0S13.88.1,13.61.89a4.44,4.44,0,0,0,0,2.05l-.8.66V6.31l.73.73S13.47,25,13.25,28.78a41.56,41.56,0,0,0,6,.44,41.56,41.56,0,0,0,6-.44C25,25,25,7,25,7l.73-.73Z"/><path class="cls-4" d="M.24,88.78s15.31-2.14,38.43,0V125s-11.29,5.45-38.43.56Z"/><path class="cls-5" d="M24.74,3.6l-.66-.66a5.44,5.44,0,0,0,0-2C23.86.1,20.17,0,19.46,0S15.05.1,14.84.89a5.44,5.44,0,0,0,0,2.05l-.66.66V6.31l.6.73S14.72,25,14.54,28.78a27.57,27.57,0,0,0,9.84,0C24.2,25,24.14,7,24.14,7l.6-.73Z"/><path class="cls-6" d="M3.37,88.78s13.33-2.14,33.48,0V125s-10,6-33.59,1.07Z"/><path class="cls-7" d="M9.72,104.3a1.13,1.13,0,0,0,0,.26,1.71,1.71,0,0,0,0,.32h-.1a4.06,4.06,0,0,1-.92-.11,2,2,0,0,1-.69-.35,1.37,1.37,0,0,1-.34-.42,1.3,1.3,0,0,1-.12-.55,1.21,1.21,0,0,1,.12-.53,1.23,1.23,0,0,1,.34-.41,2,2,0,0,1,.69-.35,3.35,3.35,0,0,1,.89-.12h.09v.25a.78.78,0,0,0,.05.33h-.1a2.94,2.94,0,0,0-.42,0,1.67,1.67,0,0,0-.44.11,1.24,1.24,0,0,0-.39.29.54.54,0,0,0-.15.39.65.65,0,0,0,.14.4,1,1,0,0,0,.4.29,1.69,1.69,0,0,0,.44.12,3.09,3.09,0,0,0,.43,0h.13Z"/><path class="cls-7" d="M12.17,104.84h-.64v-1.3a.55.55,0,0,0-.07-.28.27.27,0,0,0-.22-.08.59.59,0,0,0-.23,0l-.28.13v1.48h-.61v-3h.64v1.12h0a3,3,0,0,1,.41-.18,1,1,0,0,1,.38-.07.61.61,0,0,1,.46.18.64.64,0,0,1,.17.47v1.52Z"/><path class="cls-7" d="M14.53,103.74v1.1H13.36a1.26,1.26,0,0,1-.38-.1.9.9,0,0,1-.3-.21.53.53,0,0,1-.1-.32.47.47,0,0,1,.11-.34.88.88,0,0,1,.36-.24,1.43,1.43,0,0,1,.41-.09,3.09,3.09,0,0,1,.43,0,.31.31,0,0,0-.06-.19.29.29,0,0,0-.18-.11h-.83l.06-.46h.39a2.29,2.29,0,0,1,.58.06.89.89,0,0,1,.4.2,1,1,0,0,1,.21.31A1.28,1.28,0,0,1,14.53,103.74Zm-.6.38v-.34h-.21a.92.92,0,0,0-.27.08.54.54,0,0,0-.16.1.29.29,0,0,0-.07.18.3.3,0,0,0,.06.18.91.91,0,0,0,.16.11h.49v-.32Z"/><path class="cls-7" d="M16.66,103.2a2.43,2.43,0,0,0-.38.13l-.55.23v1.28h-.61v-2.12h.62V103h0a4.36,4.36,0,0,1,.42-.23,2.67,2.67,0,0,1,.36-.14Z"/><path class="cls-7" d="M18.8,104.86h-.3a4.21,4.21,0,0,1-.71,0,1.56,1.56,0,0,1-.48-.14,1.07,1.07,0,0,1-.43-.36,1,1,0,0,1-.15-.52,1,1,0,0,1,.16-.54,1,1,0,0,1,.49-.37,1.66,1.66,0,0,1,.38-.11,1.41,1.41,0,0,1,.41,0v-.93h.63v3Zm-.6-1.31v-.34h-.28a.9.9,0,0,0-.23.08.52.52,0,0,0-.24.2.53.53,0,0,0-.08.32.51.51,0,0,0,.28.48,1,1,0,0,0,.24.09,1.22,1.22,0,0,0,.27,0h0v-.88Z"/><path class="cls-7" d="M21.51,103.79a1,1,0,0,1-.1.46,1.1,1.1,0,0,1-.27.38.9.9,0,0,1-.34.2,1.34,1.34,0,0,1-.84,0,1,1,0,0,1-.62-.58,1.28,1.28,0,0,1-.1-.47,1.12,1.12,0,0,1,.09-.44.94.94,0,0,1,.25-.37,1,1,0,0,1,.36-.22.92.92,0,0,1,.43-.08,1.31,1.31,0,0,1,.44.07,1,1,0,0,1,.35.22,1.08,1.08,0,0,1,.26.37A1.18,1.18,0,0,1,21.51,103.79Zm-.64,0a1.41,1.41,0,0,0,0-.29.55.55,0,0,0-.15-.24.42.42,0,0,0-.14-.09.43.43,0,0,0-.16,0,.54.54,0,0,0-.18,0,.42.42,0,0,0-.15.11.61.61,0,0,0-.13.22,1.14,1.14,0,0,0,0,.58.51.51,0,0,0,.15.23.42.42,0,0,0,.14.09.5.5,0,0,0,.34,0,.78.78,0,0,0,.15-.1.76.76,0,0,0,.13-.23A.66.66,0,0,0,20.87,103.79Z"/><path class="cls-7" d="M24,104.84h-.63v-1.3a.42.42,0,0,0-.07-.27.22.22,0,0,0-.21-.09.7.7,0,0,0-.25,0l-.26.13v1.48H22v-2.12h.62v.2h0a2.65,2.65,0,0,1,.42-.18,1.07,1.07,0,0,1,.39-.07.59.59,0,0,1,.45.18.62.62,0,0,1,.17.47v1.52Z"/><path class="cls-7" d="M26.64,104.84H26v-1.3a.5.5,0,0,0-.07-.27.22.22,0,0,0-.21-.09.7.7,0,0,0-.25,0l-.26.13v1.48h-.63v-2.12h.62v.2h0a2.65,2.65,0,0,1,.42-.18,1.07,1.07,0,0,1,.39-.07.59.59,0,0,1,.45.18.62.62,0,0,1,.17.47v1.52Z"/><path class="cls-7" d="M29,103.74v1.1H27.83a1.2,1.2,0,0,1-.37-.1.63.63,0,0,1-.3-.21.54.54,0,0,1-.11-.32.53.53,0,0,1,.11-.34.91.91,0,0,1,.37-.24,1.37,1.37,0,0,1,.4-.09,3.23,3.23,0,0,1,.44,0,.6.6,0,0,0-.06-.19.42.42,0,0,0-.18-.11h-.84l.06-.46h.39a2.88,2.88,0,0,1,.59.06,1,1,0,0,1,.39.2.66.66,0,0,1,.21.31A1.28,1.28,0,0,1,29,103.74Zm-.6.38v-.34h-.22a.92.92,0,0,0-.27.08.31.31,0,0,0-.15.1.24.24,0,0,0-.07.18.3.3,0,0,0,.06.18.36.36,0,0,0,.16.11h.49v-.32Z"/><path class="cls-7" d="M31.62,102.84l-.81,1.87-.47,1.08-.59-.15.38-.84-.27-.66-.56-1.29.64-.17c.11.31.22.61.34.88l.19.5h0a2.38,2.38,0,0,1,.18-.47c.1-.24.22-.55.35-.91Z"/></g></g></svg>