<svg xmlns="http://www.w3.org/2000/svg" viewBox="0 0 38.29 141.27"><defs><style>.cls-1{fill:#bdbbbc;}.cls-2{fill:#daa596;}.cls-3{fill:#e5c4bd;}.cls-4{fill:#fff;}.cls-5{fill:none;stroke:#999;stroke-miterlimit:10;}.cls-6{fill:#221f20;}.cls-7{fill:#d2c6cc;}</style></defs><title>Asset 7</title><g id="Layer_2" data-name="Layer 2"><g id="Layer_1-2" data-name="Layer 1"><path class="cls-1" d="M25.81.73a30.85,30.85,0,0,0-13.32,0S11.49,11,12,11.25a1.52,1.52,0,0,1,.31,1.8c-.27.76-.07,15.75-.07,15.75s4.06-.15,6.26-.11c0,.08,0,.13.06.11a2.32,2.32,0,0,1,1.28,0l.06-.11c2.2,0,6.26.11,6.26.11s.2-15-.07-15.75a1.51,1.51,0,0,1,.31-1.8C26.8,11,25.81.73,25.81.73Z"/><path class="cls-2" d="M33.75,59.26c-7.22-9.94-7.7-30.47-7.7-30.47a40.41,40.41,0,0,0-6.75-.74H19a40.18,40.18,0,0,0-6.75.74s-.48,20.53-7.7,30.47S.87,134.13.87,134.13s-.81,6.42,7.53,6.74l10.6.4h.3l10.6-.4c8.34-.32,7.53-6.74,7.53-6.74S41,69.2,33.75,59.26Z"/><path class="cls-3" d="M31.18,59.26c-5.26-9.94-5.61-30.47-5.61-30.47a22.26,22.26,0,0,0-4.93-.74h-.18a22,22,0,0,0-4.92.74s-.35,20.53-5.62,30.47-2.69,74.87-2.69,74.87-.59,6.42,5.5,6.74l7.73.4h.23l7.74-.4c6.08-.32,5.5-6.74,5.5-6.74S36.46,69.2,31.18,59.26Z"/><path class="cls-1" d="M25,.73a14.75,14.75,0,0,0-9.15,0S15.16,11,15.46,11.25a2,2,0,0,1,.21,1.8c-.19.76-.05,15.75-.05,15.75s2.79-.15,4.3-.11v.11a1.12,1.12,0,0,1,.88,0v-.11c1.51,0,4.3.11,4.3.11s.15-15-.05-15.75a2,2,0,0,1,.22-1.8C25.67,11,25,.73,25,.73Z"/><path class="cls-4" d="M2.89,85.68a214.55,214.55,0,0,1,33.44,0v45.71S15,133.3,2.89,130.76C2.89,130.76,1.83,100.5,2.89,85.68Z"/><path class="cls-5" d="M4.17,87a201.47,201.47,0,0,1,31.46,0v43s-20.11,1.79-31.46-.59C4.17,129.45,3.18,101,4.17,87Z"/><path class="cls-6" d="M10.87,101.25l-.75.29q-.09-.14-.36-.48c-.18-.22-.45-.58-.82-1.06h0a.85.85,0,0,0,.22-.09,1.07,1.07,0,0,0,.22-.15.67.67,0,0,0,.14-.19,1.13,1.13,0,0,0,0-.26.52.52,0,0,0-.06-.3.55.55,0,0,0-.22-.18.45.45,0,0,0-.23,0H8.64v2.73H7.82V98.21H9.18a2.33,2.33,0,0,1,.51.11,1,1,0,0,1,.51.33.87.87,0,0,1,0,1,1.46,1.46,0,0,1-.36.34h0l.55.65A5.87,5.87,0,0,1,10.87,101.25Z"/><path class="cls-6" d="M13.71,100.21a1.49,1.49,0,0,1-.1.55,1.39,1.39,0,0,1-.33.46,1.14,1.14,0,0,1-.41.24,1.6,1.6,0,0,1-1,0,1,1,0,0,1-.41-.24,1.22,1.22,0,0,1-.33-.45,1.55,1.55,0,0,1-.11-.56,1.22,1.22,0,0,1,.1-.53,1,1,0,0,1,.3-.44,1.29,1.29,0,0,1,.42-.26,1.43,1.43,0,0,1,1,0,1.06,1.06,0,0,1,.43.26,1.23,1.23,0,0,1,.3.44A1.44,1.44,0,0,1,13.71,100.21Zm-.75,0a2,2,0,0,0,0-.35,1,1,0,0,0-.17-.28.45.45,0,0,0-.17-.11.67.67,0,0,0-.2,0,.74.74,0,0,0-.21,0,.59.59,0,0,0-.18.13.72.72,0,0,0-.15.27.91.91,0,0,0,0,.33,1,1,0,0,0,0,.35.53.53,0,0,0,.18.28.36.36,0,0,0,.16.11.67.67,0,0,0,.2,0,.74.74,0,0,0,.21,0,.45.45,0,0,0,.17-.11.92.92,0,0,0,.16-.27,1.93,1.93,0,0,0,0-.34Z"/><path class="cls-6" d="M16,100.71a.55.55,0,0,1-.12.35,1,1,0,0,1-.28.25,1.47,1.47,0,0,1-.45.14,2.35,2.35,0,0,1-.53,0H14.1l-.06-.54h.66a.6.6,0,0,0,.19,0,.32.32,0,0,0,.18-.1.29.29,0,0,0,0-.13.21.21,0,0,0,0-.11l-.15-.11-.22-.11-.24-.12a.67.67,0,0,1-.25-.25.56.56,0,0,1-.09-.31.6.6,0,0,1,.11-.34.82.82,0,0,1,.32-.26A1.45,1.45,0,0,1,15,99a3.53,3.53,0,0,1,.46,0h.45l.07.54h-.77a.39.39,0,0,0-.14.08.21.21,0,0,0,0,.11.21.21,0,0,0,.05.13l.16.1.23.11.21.11a.85.85,0,0,1,.26.24A.57.57,0,0,1,16,100.71Z"/><path class="cls-6" d="M18.78,100.21H17.06a.61.61,0,0,0,.11.35.68.68,0,0,0,.32.26,1.19,1.19,0,0,0,.32.1,2.28,2.28,0,0,0,.37,0h.44l-.08.54h-.45a3.31,3.31,0,0,1-.77-.09,1.54,1.54,0,0,1-.57-.29,1.2,1.2,0,0,1-.31-.4,1,1,0,0,1-.13-.53,1.28,1.28,0,0,1,.09-.51,1.13,1.13,0,0,1,.29-.43A.93.93,0,0,1,17.1,99a1.24,1.24,0,0,1,.5-.1,1.61,1.61,0,0,1,.48.08.86.86,0,0,1,.36.23,1.14,1.14,0,0,1,.26.42A2.22,2.22,0,0,1,18.78,100.21Zm-.71-.33a.78.78,0,0,0-.15-.39.43.43,0,0,0-.35-.14.52.52,0,0,0-.36.14.74.74,0,0,0-.18.39Z"/><path class="cls-6" d="M23.31,100.5a.79.79,0,0,1-.17.49,1.1,1.1,0,0,1-.49.33,3,3,0,0,1-.59.13H20.51v-3.3H22a4.21,4.21,0,0,1,.49.09,1.06,1.06,0,0,1,.43.26.65.65,0,0,1,.16.44.75.75,0,0,1-.13.43.78.78,0,0,1-.37.28h0a1.34,1.34,0,0,1,.27.07.79.79,0,0,1,.23.14.75.75,0,0,1,.21.26A.83.83,0,0,1,23.31,100.5Zm-.84-.1a.31.31,0,0,0-.12-.35l-.18-.09h-.48l-.07-.32a1.06,1.06,0,0,0,.43-.12.73.73,0,0,0,.14-.16.81.81,0,0,0,0-.22.36.36,0,0,0-.06-.2.33.33,0,0,0-.16-.15.66.66,0,0,0-.2-.06,1,1,0,0,0-.25,0h-.23V101h.27a2.28,2.28,0,0,0,.37,0,.8.8,0,0,0,.3-.09.55.55,0,0,0,.18-.16.47.47,0,0,0,.05-.31Z"/><path class="cls-6" d="M24.65,101.47H23.9V97.85h.75Z"/><path class="cls-6" d="M27.65,100.21H25.94a.62.62,0,0,0,.1.35.68.68,0,0,0,.32.26,1.19,1.19,0,0,0,.32.1,2.28,2.28,0,0,0,.37,0h.41l-.07.54h-.46a3.22,3.22,0,0,1-.76-.09,1.34,1.34,0,0,1-.57-.29,1,1,0,0,1-.32-.4,1.21,1.21,0,0,1-.12-.53,1.47,1.47,0,0,1,.08-.51,1.13,1.13,0,0,1,.29-.43A1,1,0,0,1,26,99a1.16,1.16,0,0,1,.49-.1,1.61,1.61,0,0,1,.48.08.86.86,0,0,1,.36.23,1,1,0,0,1,.26.42A2.25,2.25,0,0,1,27.65,100.21Zm-.71-.33a.7.7,0,0,0-.15-.39.43.43,0,0,0-.35-.14.52.52,0,0,0-.36.14.74.74,0,0,0-.18.39Z"/><path class="cls-6" d="M30.6,101.47h-.76V99.93a.64.64,0,0,0-.07-.33.3.3,0,0,0-.26-.11,1,1,0,0,0-.29.07,1.87,1.87,0,0,0-.32.15v1.76h-.76V99h.75v.23h0a2.71,2.71,0,0,1,.49-.22,1.27,1.27,0,0,1,.47-.09.74.74,0,0,1,.54.21.9.9,0,0,1,.2.57v1.82Z"/><path class="cls-6" d="M33.57,101.49H33.2a5.89,5.89,0,0,1-.84,0,1.88,1.88,0,0,1-.57-.17,1.21,1.21,0,0,1-.52-.43,1,1,0,0,1-.17-.61,1.08,1.08,0,0,1,.19-.65,1.16,1.16,0,0,1,.58-.44,2.44,2.44,0,0,1,.46-.14h.49V97.94h.76v2.93C33.57,101.07,33.57,101.31,33.57,101.49Zm-.72-1.55v-.41h-.33a.85.85,0,0,0-.28.1.55.55,0,0,0-.28.24.64.64,0,0,0-.1.38.57.57,0,0,0,.08.34.61.61,0,0,0,.25.23.86.86,0,0,0,.28.11h.33v-.29Z"/><circle class="cls-7" cx="21.73" cy="112.28" r="6.95"/></g></g></svg>