<svg xmlns="http://www.w3.org/2000/svg" viewBox="0 0 35.5 145.24"><defs><style>.cls-1{fill:#090909;}.cls-2{fill:#2d2d2d;}.cls-3{fill:#f1f2ee;}.cls-4{fill:#e0e0e0;}.cls-5{fill:#221f20;}</style></defs><title>Asset 9</title><g id="Layer_2" data-name="Layer 2"><g id="Layer_1-2" data-name="Layer 1"><path class="cls-1" d="M35.38,54.12c-.17-9.25-10-19.73-10-19.73L25,28.66l.42-5.26s-.51-13.5-.11-15.52a12.09,12.09,0,0,0-.49-5c-.08-.27,1.14-.53,0-1.68C24,.37,20.29.11,18.33,0V0H17.09c-1.95.08-5.62.34-6.45,1.17-1.13,1.15.09,1.41,0,1.68a12.45,12.45,0,0,0-.48,5c.39,2-.11,19.46-.11,19.46l.42,1.32-.42,5.73S.17,44.84.05,54.09s0,84.37,0,84.37A6,6,0,0,0,4,143.13c3,.93,9.27,1.66,13.1,2v.11l.69-.05.7.05v-.11c3.83-.34,10.09-1.07,13.09-2a6,6,0,0,0,3.93-4.67S35.55,63.36,35.38,54.12Z"/><path class="cls-2" d="M24.51,46.76s2.42-3.55,5.3,0,3,79.46,3,79.46-2.72,2.06-5.3,1.31S24.51,46.76,24.51,46.76Z"/><path class="cls-3" d="M3.49,64.57a228.74,228.74,0,0,1,28.92,0v52.06s-7.06,3.77-28.07,0Z"/><path class="cls-4" d="M3.49,64.75a72.26,72.26,0,0,1,10.18-.6v54s-3.46-.26-9.32-1.31Z"/><path class="cls-5" d="M8.24,88H9.1l.35,1.3.13.51h0l.12-.51.36-1.3h.86v3.67h-.7V90.49c0-.42.07-1.31.11-1.71h0l-.28,1-.29.88H9.37l-.29-.88-.26-1h0c0,.4.11,1.29.11,1.71v1.13H8.25Z"/><path class="cls-5" d="M12.44,88h1l1.13,3.67h-.84l-.47-1.86c-.09-.36-.2-.79-.28-1.18h0c-.09.39-.19.82-.28,1.18l-.47,1.86h-.84Zm-.38,2.15h1.73v.65H12.06Z"/><path class="cls-5" d="M15.2,88H16v3h1.61v.69H15.2Z"/><path class="cls-5" d="M18.36,88h1.22c.76,0,1.33.21,1.33.91a.79.79,0,0,1-.62.79h0a.82.82,0,0,1,.79.85h0c0,.75-.6,1.08-1.39,1.08H18.36Zm1.18,1.48c.4,0,.57-.17.57-.45s-.18-.38-.56-.38h-.37v.83ZM19.62,91c.45,0,.66-.17.66-.5s-.21-.46-.66-.46h-.44v1Z"/><path class="cls-5" d="M21.81,88h2.4v.7H22.63v.73H24v.7H22.63V91h1.64v.69H21.81Z"/><path class="cls-5" d="M24.94,89.81a1.74,1.74,0,0,1,1.53-1.91h.2a1.59,1.59,0,0,1,1.09.46l-.45.51a.9.9,0,0,0-.64-.26c-.51,0-.89.44-.89,1.18s.38,1.22.95,1.22a.89.89,0,0,0,.65-.32l.45.5a1.5,1.5,0,0,1-1.19.54,1.69,1.69,0,0,1-1.71-1.67A1.93,1.93,0,0,1,24.94,89.81Z"/></g></g></svg>