<svg xmlns="http://www.w3.org/2000/svg" viewBox="0 0 35.59 145.24"><defs><style>.cls-1{fill:#090909;}.cls-2{fill:#2d2d2d;}.cls-3{fill:#f1f2ee;}.cls-4{fill:#e0e0e0;}.cls-5{fill:#221f20;}</style></defs><title>Asset 4</title><g id="Layer_2" data-name="Layer 2"><g id="Layer_1-2" data-name="Layer 1"><path class="cls-1" d="M35.51,54.12c-.17-9.25-10-19.73-10-19.73L25,28.66l.42-5.26S25,9.9,25.35,7.88a12.63,12.63,0,0,0-.48-5c-.09-.27,1.13-.53,0-1.68C24,.37,20.37.11,18.42,0V0H17.18c-2,.08-5.63.34-6.45,1.17-1.14,1.15.08,1.41,0,1.68a12.09,12.09,0,0,0-.49,5c.4,2-.11,19.46-.11,19.46l.42,1.32-.42,5.73S.25,44.84.08,54.09s0,84.37,0,84.37A6,6,0,0,0,4,143.13c3,.93,9.26,1.66,13.09,2v.11l.7-.05.69.05v-.11c3.83-.34,10.09-1.07,13.1-2a6,6,0,0,0,3.92-4.67S35.69,63.36,35.51,54.12Z"/><path class="cls-2" d="M24.64,46.76s2.43-3.55,5.31,0,3,79.46,3,79.46-2.73,2.06-5.31,1.31S24.64,46.76,24.64,46.76Z"/><path class="cls-3" d="M3.62,64.57a228.9,228.9,0,0,1,28.93,0v52.06s-7.06,3.77-28.07,0Z"/><path class="cls-4" d="M3.62,64.75a72.08,72.08,0,0,1,10.18-.6v54s-3.47-.26-9.32-1.31Z"/><path class="cls-5" d="M8.37,88h.86l.36,1.3.12.51h0l.12-.51.36-1.3h.86v3.67h-.69V90.49c0-.42.07-1.31.11-1.71h0l-.28,1-.28.88h-.4l-.29-.88-.26-1H9c0,.4.11,1.29.11,1.71v1.13H8.39Z"/><path class="cls-5" d="M11.91,88h2.41v.7H12.78v.73h1.35v.7H12.78V91h1.64v.69H12Z"/><path class="cls-5" d="M15.13,88h1.29c.77,0,1.4.27,1.4,1.15s-.63,1.2-1.4,1.2H16v1.32h-.82Zm1.22,1.69c.43,0,.66-.19.66-.54s-.23-.49-.66-.49H16v1Zm.48-.09L18,91.67h-.92l-.8-1.54Z"/><path class="cls-5" d="M18.68,88h.82v3h1.61v.69H18.68Z"/><path class="cls-5" d="M21.64,89.77c0-1.23.6-1.88,1.46-1.88s1.46.65,1.46,1.88-.6,1.92-1.46,1.92S21.64,91,21.64,89.77Zm2.08,0c0-.76-.24-1.17-.62-1.17s-.62.41-.62,1.17.24,1.2.62,1.2.62-.41.62-1.2Z"/><path class="cls-5" d="M26,88.65H25V88h3v.7H26.87v3H26Z"/></g></g></svg>