<svg xmlns="http://www.w3.org/2000/svg" viewBox="0 0 35.85 143.76"><defs><style>.cls-1{fill:#267265;}.cls-2{fill:#b4b9a3;}.cls-3{fill:#dce0c2;}.cls-4{fill:#3d897e;}.cls-5{fill:#f7f7f7;}.cls-6{fill:#6ca399;}.cls-7{isolation:isolate;font-size:3px;fill:#fff;font-family:AmericanTypewriter-Bold, American Typewriter;font-weight:700;}</style></defs><title>Asset 11</title><g id="Layer_2" data-name="Layer 2"><g id="Layer_1-2" data-name="Layer 1"><path class="cls-1" d="M17.76,33.53c-1.6.07-7.39.48-7.39.48.54-2.81,1.47-26.46,1.47-26.46l-.53-1V3.43l.4-.94V1.05c2.08-1.11,5.7-1.06,6.21-1s4.14-.06,6.22,1V2.53l.4.94V6.53l-.53,1S24.94,31.18,25.48,34c0,0-2.39-.34-7-.48"/><path class="cls-2" d="M35.11,64.53c-.12-12.68-1.72-18.59-6.27-22.4S25,33.76,25,33.76a45.46,45.46,0,0,0-6.68-.71h-.83a45.46,45.46,0,0,0-6.68.71s.74,4.55-3.82,8.37S.86,51.85.74,64.53,0,134.8,0,134.8s.49,7,4.06,7.88c3,.71,10.88,1,13.45,1.08h.83c2.57-.08,10.48-.37,13.45-1.08,3.57-.87,4.06-7.88,4.06-7.88S35.23,77.22,35.11,64.53Z"/><path class="cls-3" d="M32.41,64.53c-.1-12.68-1.38-18.59-5-22.4a11,11,0,0,1-3.06-8.37A29.37,29.37,0,0,0,19,33.05h-.66a29.38,29.38,0,0,0-5.36.71A11,11,0,0,1,9.9,42.13c-3.66,3.81-4.94,9.72-5,22.4s-.59,70.27-.59,70.27.39,7,3.26,7.88c2.38.71,8.73,1,10.79,1.08H19c2.07-.08,8.42-.37,10.8-1.08,2.87-.87,3.26-7.88,3.26-7.88S32.47,77.22,32.41,64.53Z"/><path class="cls-4" d="M18.78,33c-1,.07-4.75.47-4.75.47C14.37,30.73,15,7.4,15,7.4l-.34-1v-3l.25-.92V1a8.3,8.3,0,0,1,8,0V2.46l.26.92v3l-.35,1s.6,23.33,1,26.09A29.73,29.73,0,0,0,19.28,33"/><path class="cls-4" d="M34.21,129.53a46.83,46.83,0,0,1-30,0V87.43a71.88,71.88,0,0,1,30,0C33.67,98,34.61,119.17,34.21,129.53Z"/><path class="cls-5" d="M33.29,128.27a49.5,49.5,0,0,1-28.18,0V93.35a75.86,75.86,0,0,1,28.18,0C32.79,102.12,33.67,119.68,33.29,128.27Z"/><circle class="cls-6" cx="14.84" cy="111.07" r="3.74"/><circle class="cls-4" cx="23.35" cy="116.25" r="3.74"/><circle class="cls-4" cx="23.35" cy="102.98" r="5.42"/><text class="cls-7" transform="translate(13.22 90.24)">Moscato</text></g></g></svg>