<svg xmlns="http://www.w3.org/2000/svg" viewBox="0 0 39.24 144.86"><defs><style>.cls-1{fill:#060707;}.cls-2{fill:#e4dbd0;}.cls-3{fill:#d5c9bb;}.cls-4{fill:#ba9093;}.cls-5{fill:#cba4a6;}.cls-6{isolation:isolate;font-size:3.08px;fill:#221f20;font-family:Courier-Bold, Courier;font-weight:700;}</style></defs><title>Asset 2</title><g id="Layer_2" data-name="Layer 2"><g id="Layer_1-2" data-name="Layer 1"><path class="cls-1" d="M38.22,76.84C38,60.05,24.46,26.31,24.46,26.31l-4.85.29-4.85-.29S1.27,60.05,1,76.84,0,138,0,138s.11,6.51,12.33,6.75c2.42,0,4.22.07,5.57.09h3.44c1.35,0,3.15,0,5.57-.09,12.22-.24,12.33-6.75,12.33-6.75S38.5,93.6,38.22,76.84Z"/><path class="cls-2" d="M24.88,0H15.07a2.33,2.33,0,0,0-2.39,2.27h0V4a2.33,2.33,0,0,0,2.39,2.27h-.9l-.42,23.25L26,29.4V6.24H24.88A2.33,2.33,0,0,0,27.26,4V2.27A2.33,2.33,0,0,0,24.88,0Z"/><path class="cls-3" d="M14.1,29.49h3.81V.49h-3a2.27,2.27,0,0,0-2.27,2.26V4.49a2.27,2.27,0,0,0,2.27,2.26h-.85Z"/><path class="cls-4" d="M34.21,137.67s-11.79.87-15.72.87c-3.51,0-14.06-.87-14.06-.87V84s10.54-.87,14.06-.86c3.94,0,15.72.86,15.72.86Z"/><path class="cls-5" d="M33,134.41s-9.18.93-14.48.93c-4.6,0-12.82-.93-12.82-.93V85.25s9.61-.51,12.82-.5c3.63,0,14.48.5,14.48.5Z"/><text class="cls-6" transform="translate(9.26 95.9)">Pinot Noir</text><circle class="cls-4" cx="19.32" cy="107.81" r="8.12"/></g></g></svg>