<svg xmlns="http://www.w3.org/2000/svg" viewBox="0 0 35.85 143.76"><defs><style>.cls-1{fill:#ddb464;}.cls-2{fill:#ede6bc;}.cls-3{fill:#efedd5;}.cls-4{fill:#edc873;}.cls-5{fill:#f7f7f7;}.cls-6{isolation:isolate;font-size:3px;fill:#221f20;font-family:AmericanTypewriter-Bold, American Typewriter;font-weight:700;}.cls-7{fill:#e5e5e5;}</style></defs><title>Asset 10</title><g id="Layer_2" data-name="Layer 2"><g id="Layer_1-2" data-name="Layer 1"><path class="cls-1" d="M17.76,33.53c-1.6.07-7.39.48-7.39.48.57-2.85,1.47-26.48,1.47-26.48l-.53-1V3.43l.39-.94V1.05C13.79-.06,17.41,0,17.92.05s4.14-.06,6.22,1V2.53l.4.94V6.53l-.54,1S24.94,31.18,25.47,34c0,0-2.38-.34-7-.48"/><path class="cls-2" d="M35.11,64.53c-.12-12.68-1.72-18.59-6.28-22.4S25,33.76,25,33.76a45.6,45.6,0,0,0-6.69-.71h-.82a45.46,45.46,0,0,0-6.68.71s.73,4.55-3.82,8.37S.86,51.85.73,64.53,0,134.8,0,134.8s.49,7,4.06,7.88c3,.71,10.88,1,13.45,1.08h.82c2.58-.08,10.49-.37,13.46-1.08,3.57-.87,4.06-7.88,4.06-7.88S35.23,77.22,35.11,64.53Z"/><path class="cls-3" d="M32.37,64.53c-.1-12.68-1.39-18.59-5-22.4a10.92,10.92,0,0,1-3.06-8.37,29.37,29.37,0,0,0-5.37-.71h-.66a29.38,29.38,0,0,0-5.36.71,11,11,0,0,1-3.06,8.37c-3.66,3.81-4.94,9.72-5,22.4s-.59,70.27-.59,70.27.39,7,3.26,7.88c2.38.71,8.73,1,10.79,1.08h.62c2.07-.08,8.42-.37,10.8-1.08,2.86-.87,3.26-7.88,3.26-7.88S32.47,77.22,32.37,64.53Z"/><path class="cls-4" d="M18.77,33c-1,.07-4.75.47-4.75.47.35-2.76,1-26.09,1-26.09l-.34-1v-3l.25-.92V1a8.3,8.3,0,0,1,8,0V2.46l.25.92v3l-.34,1s.6,23.33.95,26.09A29.73,29.73,0,0,0,19.22,33"/><path class="cls-4" d="M34.2,129.53a46.83,46.83,0,0,1-30,0V87.43a71.55,71.55,0,0,1,30,0C33.67,98,34.6,119.17,34.2,129.53Z"/><path class="cls-5" d="M33.29,128a44.68,44.68,0,0,1-28.18,0V89.24a68.6,68.6,0,0,1,28.18,0C32.78,99,33.67,118.53,33.29,128Z"/><text class="cls-6" transform="translate(10.16 97.27)">Pinot Grigio</text><circle class="cls-7" cx="19.97" cy="112.29" r="8.96"/></g></g></svg>