<svg xmlns="http://www.w3.org/2000/svg" viewBox="0 0 31.12 147.15"><defs><style>.cls-1{fill:#f1eaa8;}.cls-2{fill:#dbdadb;}.cls-3{fill:#bcbec0;}.cls-4{fill:#f3efd1;}.cls-5{fill:#414042;}.cls-6{fill:none;stroke:#949598;stroke-miterlimit:10;}.cls-7,.cls-8,.cls-9{isolation:isolate;}.cls-8,.cls-9{font-size:5px;fill:#fff;font-family:AmericanTypewriter-Bold, American Typewriter;font-weight:700;}.cls-9{letter-spacing:-0.02em;}</style></defs><title>Asset 12</title><g id="Layer_2" data-name="Layer 2"><g id="Layer_1-2" data-name="Layer 1"><path class="cls-1" d="M8.78.88V30.59s1,4.26-8.57,42.73c0,0-.48,1.56,0,12.75S0,143.45,0,143.45s17.83,8.33,30.92,0V76.08a24,24,0,0,0-.5-5C28.77,63,23.55,37.51,22.35,31.51L21.4.88S16.88-1.07,8.78.88Z"/><path class="cls-2" d="M8.91.56a35.79,35.79,0,0,1,12.64,0s.31,8.06.11,10.06A63.76,63.76,0,0,0,9,10.62Z"/><path class="cls-3" d="M12.37.11C10.23.27,8.91.43,8.91.43V10.49h3.46Z"/><path class="cls-4" d="M17.18,29.88h3.09s5.36,35.86,7,45.55V142s-5.15,1.85-7.21,0S22.33,70.88,17.18,29.88Z"/><path class="cls-5" d="M.12,95.08s23.12-3.16,31,1v34.63a43,43,0,0,1-31,0Z"/><polygon class="cls-2" points="22.23 29.83 8.91 29.83 8.91 10.39 21.74 10.39 22.23 29.83"/><rect class="cls-3" x="8.91" y="10.39" width="3.46" height="19.45"/><path class="cls-6" d="M8.91,10.39a35,35,0,0,1,12.83,0"/><path class="cls-6" d="M8.91,2.65a35.47,35.47,0,0,1,12.83,0"/><path class="cls-6" d="M21.74,5.88a39.67,39.67,0,0,0-8-.53"/><path class="cls-6" d="M9,8.09a23.62,23.62,0,0,1,8.25-.53"/><g class="cls-7"><text class="cls-8" transform="translate(3.16 104.39)">RISELI</text><text class="cls-9" transform="translate(22 104.39)">N</text><text class="cls-8" transform="translate(26.28 104.39)">G</text></g></g></g></svg>