<svg xmlns="http://www.w3.org/2000/svg" viewBox="0 0 34.36 140.13"><defs><style>.cls-1{fill:#e3dea2;}.cls-2{fill:#929d50;}.cls-3{fill:#fff;opacity:0.41;isolation:isolate;}.cls-4{fill:#f8f3da;}.cls-5{fill:#848f46;}.cls-6{fill:#221f20;}.cls-7{fill:#dcdbdb;}.cls-8{fill:#eaeaea;}.cls-9{fill:#838943;}</style></defs><title>Asset 5</title><g id="Layer_2" data-name="Layer 2"><g id="Layer_1-2" data-name="Layer 1"><path class="cls-1" d="M34.36,64.63S34.29,49.76,31.87,47Q28,42.12,24.66,36.84c-1.11-1.25-1.74-10-1.74-10H11.46s-.63,8.8-1.74,10A122.64,122.64,0,0,1,2.51,47C.09,49.76,0,64.63,0,64.63v69.5s-1.38,6,17,6h.24c18.39,0,17-6,17-6Z"/><path class="cls-2" d="M23.47.71C23.3.19,18.36,0,17.19,0h-.25c-1.17,0-6.11.19-6.28.71s-.69,6.09,0,6.58,1.47,14.63.3,21.3H23.19c-1.18-6.67-.4-20.81.29-21.3S23.67,1.3,23.47.71Z"/><path class="cls-3" d="M21.09,49.6s3.86-3,6.65,0,1.93,75.54,1.93,75.54-5.58,4.73-6.87,0S26,61.62,21.09,49.6Z"/><path class="cls-4" d="M0,64.63s19-.84,34.34,0V106S16.55,110.86,0,106Z"/><path class="cls-5" d="M0,103.06s16.89,4.88,34.32,0v6.84s-20.28,4.38-34.28-.61Z"/><path class="cls-5" d="M0,103.06s16.89,4.88,34.32,0v6.84s-20.28,4.38-34.28-.61Z"/><path class="cls-6" d="M5.32,73.56l.38-.46a1.25,1.25,0,0,0,.78.31c.28,0,.41-.11.41-.25s-.18-.26-.45-.38l-.38-.16a.86.86,0,0,1-.62-.8A1,1,0,0,1,6.51,71a1.42,1.42,0,0,1,1,.38l-.33.42a1,1,0,0,0-.68-.23c-.22,0-.36.09-.36.26s.19.24.47.35l.36.15a.81.81,0,0,1,.63.79c0,.49-.41.91-1.14.91A1.66,1.66,0,0,1,5.32,73.56Z"/><path class="cls-6" d="M8.06,73.31c0-.5.41-.75,1.46-.82,0-.2-.17-.32-.47-.32a1.5,1.5,0,0,0-.68.21L8.13,72a2.16,2.16,0,0,1,1-.3.89.89,0,0,1,1,.79.74.74,0,0,1,0,.21V73.9H9.64l-.05-.25h0a1.4,1.4,0,0,1-.79.3.67.67,0,0,1-.73-.6Zm1.46,0V72.9c-.65,0-.83.18-.83.37s.12.21.31.21a.82.82,0,0,0,.52-.22Z"/><path class="cls-6" d="M10.75,73.08V71.7h.66V73c0,.3.08.43.32.43a.48.48,0,0,0,.43-.26V71.7h.66v2.2h-.54v-.32h0a1,1,0,0,1-.75.37C11,74,10.75,73.64,10.75,73.08Z"/><path class="cls-6" d="M13.3,71.7H14l.35,1c.07.22.13.45.2.69h0c.07-.24.12-.47.2-.69l.35-1h.63l-.8,2.2h-.7Z"/><path class="cls-6" d="M17.09,72.22h-.9V71.7h1.55v2.2h-.66ZM17,71a.44.44,0,0,1,.5-.37.38.38,0,1,1-.13.74A.45.45,0,0,1,17,71Z"/><path class="cls-6" d="M18.77,74.3a.51.51,0,0,1,.34-.44h0a.45.45,0,0,1-.22-.38.56.56,0,0,1,.26-.42h0a.72.72,0,0,1-.29-.58.85.85,0,0,1,.88-.81h.07a1.15,1.15,0,0,1,.37,0h.9v.49h-.45a.43.43,0,0,1,.1.29c0,.51-.4.74-.92.74h-.3a.18.18,0,0,0-.1.16c0,.12.11.17.38.17h.4c.58,0,.9.16.9.56s-.51.8-1.33.8C19.19,74.9,18.77,74.7,18.77,74.3Zm1.7-.11c0-.15-.13-.18-.39-.18h-.62c-.11.06-.16.13-.16.21s.22.26.57.26S20.47,74.34,20.47,74.19Zm-.28-1.74a.33.33,0,0,0-.27-.39.34.34,0,0,0-.4.27v.12a.34.34,0,0,0,.28.39.33.33,0,0,0,.39-.27A.24.24,0,0,0,20.19,72.45Z"/><path class="cls-6" d="M21.54,71.7h.54l.05.3h0a1.09,1.09,0,0,1,.77-.35c.5,0,.72.34.72.9V73.9H23V72.64c0-.3-.08-.43-.33-.43a.6.6,0,0,0-.44.23V73.9h-.67Z"/><path class="cls-6" d="M24.12,72.82A1.14,1.14,0,1,1,25.25,74a1.11,1.11,0,0,1-1.13-1.09Zm1.59,0c0-.39-.15-.64-.46-.64s-.45.25-.45.64.15.63.45.63S25.71,73.2,25.71,72.82Z"/><path class="cls-6" d="M26.92,71.7h.54l.05.3h0a1.09,1.09,0,0,1,.77-.35c.51,0,.73.34.73.9V73.9h-.66V72.64c0-.3-.09-.43-.33-.43a.62.62,0,0,0-.45.23V73.9h-.66Z"/><path class="cls-6" d="M10.8,76.38h1c.61,0,1.08.17,1.08.72a.64.64,0,0,1-.5.64h0a.65.65,0,0,1,.63.69h0c0,.6-.49.86-1.12.86H10.82Zm.95,1.17c.32,0,.46-.13.46-.35s-.14-.31-.45-.31h-.3v.66Zm.06,1.24c.36,0,.54-.13.54-.4s-.17-.36-.54-.36h-.35v.76Z"/><path class="cls-6" d="M14.08,78.43V76.68h-.7v-.52h1.36v2.3a.34.34,0,0,0,.3.36h.06a1,1,0,0,0,.35-.07l.15.49a1.89,1.89,0,0,1-.67.12C14.37,79.36,14.08,79,14.08,78.43Z"/><path class="cls-6" d="M16.12,78.69c0-.5.41-.76,1.46-.82,0-.2-.17-.32-.47-.32a1.5,1.5,0,0,0-.68.21l-.23-.44a2.24,2.24,0,0,1,1-.3.89.89,0,0,1,1,.79.74.74,0,0,1,0,.21V79.3h-.54v-.25h0a1.34,1.34,0,0,1-.79.31.67.67,0,0,1-.74-.59A.19.19,0,0,1,16.12,78.69Zm1.46-.06v-.36c-.65,0-.83.17-.83.36s.12.22.31.22a.82.82,0,0,0,.52-.22Z"/><path class="cls-6" d="M18.86,77.08h.53l.05.29h0a1.09,1.09,0,0,1,.77-.35c.5,0,.72.35.72.91V79.3h-.66V78c0-.29-.08-.42-.32-.42a.62.62,0,0,0-.45.23V79.3h-.66Z"/><path class="cls-6" d="M21.52,78.19A1.29,1.29,0,0,1,22.93,77a1.26,1.26,0,0,1,.71.3l-.3.41a.75.75,0,0,0-.5-.18.61.61,0,0,0-.64.56v.07a.59.59,0,0,0,.55.63h.07a1,1,0,0,0,.59-.21l.26.42a1.41,1.41,0,0,1-.91.33,1.13,1.13,0,0,1-1.23-1A.53.53,0,0,1,21.52,78.19Z"/><path class="cls-7" d="M.05,84.57S7.75,85,18.61,93s-4.49,7.89-4.49,7.89L0,103.06Z"/><path class="cls-8" d="M1.65,103.06s11-13.12,32.69-11.77v11.77S13.75,108.49,1.65,103.06Z"/><path class="cls-9" d="M15.57,28.56V0c-1.89.08-4.78.27-4.91.67-.2.59-.69,6.08,0,6.57s1.47,14.63.3,21.3Z"/></g></g></svg>