<svg xmlns="http://www.w3.org/2000/svg" viewBox="0 0 33.11 144.59"><defs><style>.cls-1{fill:#d09486;}.cls-2{fill:#e2b3a8;}.cls-3{fill:#e9e7e4;}.cls-4{fill:#f4f4f4;}.cls-5{fill:#7d7d7d;}.cls-6{fill:#e7e7e4;}.cls-7,.cls-8{isolation:isolate;}.cls-8{font-size:4.06px;fill:#221f20;font-family:AmericanTypewriter-Bold, American Typewriter;font-weight:700;}.cls-9{fill:#d2c8cd;}</style></defs><title>Asset 8</title><g id="Layer_2" data-name="Layer 2"><g id="Layer_1-2" data-name="Layer 1"><path class="cls-1" d="M33,64.08c-.17-16.48-10.3-22.32-10.3-22.32s.08-2.33.18-5.82H10.2c.1,3.49.18,5.82.18,5.82S.25,47.6.08,64.08s0,75,0,75,.78,5.67,8.2,5.51a76.23,76.23,0,0,1,8.28,0,76.23,76.23,0,0,1,8.28,0c7.42.16,8.2-5.51,8.2-5.51S33.21,80.56,33,64.08Z"/><path class="cls-2" d="M30.31,64.08C30.17,47.6,22.1,41.76,22.1,41.76s.07-2.33.14-5.82H12.14c.08,3.49.14,5.82.14,5.82S4.21,47.6,4.08,64.08s0,75,0,75,.62,5.67,6.53,5.51a48.46,48.46,0,0,1,6.6,0,48.31,48.31,0,0,1,6.59,0c5.92.16,6.54-5.51,6.54-5.51S30.48,80.56,30.31,64.08Z"/><path class="cls-3" d="M16.5,37.88v-.17C16.31,37.76,16.5,37.88,16.5,37.88Z"/><path class="cls-3" d="M23.16.89C22,.28,17.43,0,16.62,0H16.5c-.81,0-5.33.28-6.54.89V11.52l.89.68-.89.52V37.35a21.79,21.79,0,0,0,5.47.45,5.47,5.47,0,0,1,1.07-.11h.12a5.55,5.55,0,0,1,1.07.11,21.87,21.87,0,0,0,5.47-.45V12.72l-.89-.52.89-.68Z"/><path class="cls-3" d="M16.62,37.71v.17S16.8,37.76,16.62,37.71Z"/><path class="cls-4" d="M16.71,37.88v-.17C16.58,37.76,16.71,37.88,16.71,37.88Z"/><path class="cls-4" d="M21.54.89C20.66.28,17.39,0,16.8,0h-.09c-.59,0-3.87.28-4.75.89V11.52l.64.68-.64.52V37.35a11.73,11.73,0,0,0,4,.45,2.88,2.88,0,0,1,.78-.11h.09a2.87,2.87,0,0,1,.77.11,11.54,11.54,0,0,0,4-.45V12.72L21,12.2l.64-.68Z"/><path class="cls-4" d="M16.8,37.71v.17S16.93,37.76,16.8,37.71Z"/><path class="cls-5" d="M10,18.17s3.47-1.11,13.2,0v4s-9.61-.91-13.2,0Z"/><path class="cls-6" d="M2.82,64.12H31.73v49.05s-17,2.39-28.91,0Z"/><g class="cls-7"><text class="cls-8" transform="translate(7.05 94.77)">Rose Blend</text><text class="cls-8" transform="translate(12.25 99.64)">Sweet</text></g><circle class="cls-9" cx="18.7" cy="81.04" r="6.38"/></g></g></svg>