<svg xmlns="http://www.w3.org/2000/svg" viewBox="0 0 36.75 144.11"><defs><style>.cls-1{fill:#eeb2a1;}.cls-2{fill:#edcbc3;}.cls-3{fill:#8e2c36;}.cls-4{fill:#fef9e8;}.cls-5{fill:#f9f8f2;}.cls-6{isolation:isolate;font-size:4.04px;fill:#221f20;font-family:AmericanTypewriter-Bold, American Typewriter;font-weight:700;}.cls-7{fill:#eddfe3;}.cls-8{fill:#dbc8cc;}.cls-9{fill:#c24757;}</style></defs><title>Asset 13</title><g id="Layer_2" data-name="Layer 2"><g id="Layer_1-2" data-name="Layer 1"><path class="cls-1" d="M27.93,37.91c-2.8-2.9-2.8-12.19-2.8-12.19H11.61s0,9.29-2.8,12.19S-.19,45.17,0,65s0,73.92,0,73.92.39,4.3,6,4.93a73,73,0,0,0,12.37,0,73,73,0,0,0,12.37,0c5.61-.63,6-4.93,6-4.93s-.2-54.08,0-73.92S30.74,40.86,27.93,37.91Z"/><path class="cls-2" d="M26.14,37.91c-2-2.9-2-12.19-2-12.19H14.37s0,9.29-2,12.19S5.89,45.17,6,65s0,73.92,0,73.92.28,4.3,4.33,4.93q8.91.06,17.82,0c4-.63,4.32-4.93,4.32-4.93s-.14-54.08,0-73.92S28.16,40.86,26.14,37.91Z"/><path class="cls-3" d="M25.37,6.1V0H11.21V6.1s-.52.65.93.55l-.93,22.9a35.17,35.17,0,0,1,14.16,0l-.93-22.9C25.89,6.75,25.37,6.1,25.37,6.1Z"/><path class="cls-4" d="M0,65s23.86-2.26,36.74,0v43.22a135.56,135.56,0,0,1-36.66,0Z"/><path class="cls-5" d="M3.22,65S25,62.74,36.74,65v43.22a113,113,0,0,1-33.46,0Z"/><text class="cls-6" transform="translate(2.53 73.21)">White Zinfandel</text><path class="cls-7" d="M36.68,84S14.8,88.25.61,98.65l-.55,5.77s13.6,4.2,36.58.86Z"/><path class="cls-8" d="M0,80.75S21.91,85.58,36.1,97.5l.56,6.61s-13.61,4.81-36.59,1Z"/><path class="cls-9" d="M.07,105.09s26.5,1.61,36.59-1v8.13A104.51,104.51,0,0,1,0,112.59Z"/><path class="cls-9" d="M14.59,100.37a104.43,104.43,0,0,0,12,0V119.1a30.3,30.3,0,0,1-12,0Z"/></g></g></svg>